<?xml version="1.0" encoding="UTF-8"?>
<svg xmlns="http://www.w3.org/2000/svg" viewBox="0 0 132.5 116.47">
  <defs>
    <style>
      .cls-1 {
        fill: #92526f;
        opacity: .4;
      }

      .cls-1, .cls-2, .cls-3, .cls-4, .cls-5, .cls-6, .cls-7, .cls-8, .cls-9, .cls-10, .cls-11, .cls-12, .cls-13, .cls-14 {
        stroke-width: 0px;
      }

      .cls-1, .cls-5, .cls-12, .cls-14 {
        mix-blend-mode: multiply;
      }

      .cls-2 {
        fill: #aa425f;
      }

      .cls-3 {
        fill: #7a253e;
      }

      .cls-4 {
        fill: #301426;
      }

      .cls-5 {
        fill: #a44769;
        opacity: .36;
      }

      .cls-6 {
        fill: #4f182b;
      }

      .cls-7 {
        fill: #922f4f;
      }

      .cls-8 {
        fill: #feefe6;
        mix-blend-mode: soft-light;
      }

      .cls-9 {
        fill: #db8793;
      }

      .cls-10 {
        fill: #271525;
      }

      .cls-15 {
        isolation: isolate;
      }

      .cls-11 {
        fill: #fae1da;
      }

      .cls-12 {
        fill: #925268;
        opacity: .47;
      }

      .cls-13 {
        fill: #f5d6d2;
      }

      .cls-14 {
        fill: #e0ccd4;
        opacity: .6;
      }
    </style>
  </defs>
  <g class="cls-15">
    <g id="Layer_2" data-name="Layer 2">
      <g id="Layer_1-2" data-name="Layer 1">
        <g>
          <path class="cls-14" d="M1.27,110.53c-10.07,2.34,42.52,5.93,67.24,5.93s71.16-4.51,63.05-6.13c-8.11-1.62-42.33-4.78-68.46-4.78s-51.75,2.64-61.83,4.98Z"/>
          <g>
            <path class="cls-4" d="M12.95,96.21c-.71.14.88,4.7,2.5,5.11,1.62.41,2.28-2.91,2.28-2.91,0,0,1.83,2.77,3.31,2.02,1.87-.95,2.36-2.57,2.36-2.57,0,0,1.85,3.31,3.15,2.39,1.3-.92.42-4.45.42-4.45,0,0-3.59.5-7.2.56-2.88.05-5.77-.37-6.81-.16Z"/>
            <path class="cls-2" d="M19.64,42.05s-10.61,26.68-6.89,52.76c6.15.99,14.5.2,14.5.2l-7.61-52.96Z"/>
            <path class="cls-5" d="M27.26,95s-8.36.79-14.5-.19c-.23-1.6-.4-3.19-.52-4.79-1.96-24.46,7.4-47.98,7.4-47.98l2.76,19.18,4.86,33.78Z"/>
            <path class="cls-1" d="M27.26,95s-8.36.79-14.5-.19c-.23-1.6-.4-3.19-.52-4.79,1.04.82,4.77,3.38,6.48-.22-1.04-6.56,0-32.97,0-32.97,0,0,1.58,1.87,3.68,4.39l4.86,33.78Z"/>
            <path class="cls-2" d="M112.11,43.02s7.29,7.77,9.39,25.75c1.86,15.88-4.05,27.21-5.99,27.69-1.94.49-11.5-3.56-11.5-3.56l8.1-49.88Z"/>
            <path class="cls-5" d="M121.09,83.55c-1.39,7.71-4.32,12.59-5.58,12.92-1.94.48-11.5-3.56-11.5-3.56l6.44-39.66,1.66-10.23s7.29,7.77,9.39,25.75c.66,5.58.36,10.59-.41,14.78Z"/>
            <path class="cls-1" d="M121.09,83.55c-1.39,7.71-4.32,12.59-5.58,12.92-1.94.48-11.5-3.56-11.5-3.56l6.44-39.66,1.1-.59s.21,16.38-1.57,32.65c1.16,6.43,8.49,4.56,11.11-1.76Z"/>
            <path class="cls-4" d="M103.63,93.99s10.66,3.57,10.9,4.32c.24.74-1.12,3.43-2.13,3.13-1.01-.3-.96-2.97-.96-2.97,0,0-2.55,2.21-4.32,2.04-1.77-.18-1.39-3.8-1.39-3.8,0,0-1.8,2.09-2.87,1.14-1.07-.95.77-3.85.77-3.85Z"/>
            <path class="cls-3" d="M45,6.13h0c-1.16,2.02-2.46,4.16-3.36,5.78-.62,1.1-1.06,1.98-1.14,2.41-.4,2.02.8,8.34.8,8.34l-10.15,3.07s-3.85-7.82-3.54-11.06C27.91,11.51,45.44,0,47.94.85c.7.24-1.21,2.25-2.95,5.28Z"/>
            <path class="cls-8" d="M38.9,15.2c-.41,1.15.82,7.04.82,7.04l-4.31,2.03s-2.7-6.03-2.59-6.36c.1-.32,12.17-11.77,12.17-11.77-1.16,2-2.46,4.15-3.36,5.77-1.22,1.26-2.53,2.7-2.73,3.29Z"/>
            <path class="cls-3" d="M104.01,15.75c-.47,2.05-4.15,9.8-4.15,9.8l-9.57-2.89s1.2-6.32.8-8.34c-.05-.26-.24-.71-.52-1.26-.72-1.43-2.06-3.63-3.35-5.84h0c-2-3.43-3.87-6.83-3.13-7.2,1.39-.71,20.39,13.66,19.91,15.73Z"/>
            <path class="cls-8" d="M96.49,23.16l-4.43-2.24s.97-5.03.46-6.15c-.2-.43-1.01-1.07-1.94-1.7-.72-1.43-2.06-3.63-3.35-5.84,0,0,9.93,7.69,10.99,8.74,1.04,1.04-1.73,7.2-1.73,7.2Z"/>
            <path class="cls-4" d="M73.38,14.6c.29-.83-2.1-6.94-4.02-7.9s-5.73,8.38-15.13,8.4c-.22.74-.38,1.29-.38,1.29,0,0,8.4-.18,13.46-5.58,2.36-.42,5.06,3.98,5.06,3.98l1.01-.18Z"/>
            <path class="cls-2" d="M102.07,107.6s-14.55,1.73-21.65.41c-1.14-3.89-3.26-10.57-3.26-10.57,0,0-14.31-4.21-24.51,1.94-2.11,3.07-1.3,8.29-1.3,8.29,0,0-17.62,4.25-21.68.53-7.58-13.9-11.64-44.12-11.18-63.04.19-7.74,1.15-13.27,2.91-14.45,20.79-13.81,42.26-15.58,59.23-12.8,18.87,3.11,32.16,11.86,32.76,16.04,1.14,7.94-11.34,73.65-11.34,73.65Z"/>
            <path class="cls-9" d="M25.06,74.1c-1.84.74,6.5,21.17,6.5,21.17,0,0,31.55-11.68,63.4-.48,4.86-13.8,5.57-19,4.86-20.66-1.41-3.29-37.29-15.1-74.76-.03Z"/>
            <path class="cls-11" d="M56.12,27.61s7.72-1.21,15.01-.48c-1.96-7.32-5.89-2.19-5.89-2.19,0,0-.4-1.86-1.68-3.12-1.8-1.77-6.72-1.45-7.43,5.79Z"/>
            <g>
              <path class="cls-4" d="M47.75,35.2c-.61.4.43,12.36,14.74,13.77,14.31,1.4,19.22-15.55,19.16-16.03-.05-.49-22.08-5.45-33.9,2.27Z"/>
              <path class="cls-13" d="M49.19,35.89s11.71,6.59,30.87-2.04c0,0-18.47-4.63-30.87,2.04Z"/>
            </g>
            <path class="cls-10" d="M62.85,24.55c.16.9-.55,1.77-1.57,1.95-1.02.18-1.98-.41-2.13-1.31-.16-.9.55-1.77,1.57-1.95s1.98.41,2.13,1.31Z"/>
            <circle class="cls-10" cx="67.85" cy="25.56" r=".97"/>
            <path class="cls-5" d="M102.07,107.6s-14.55,1.73-21.65.41c-1.14-3.89-3.26-10.57-3.26-10.57,0,0-14.31-4.21-24.51,1.94-2.11,3.07-1.3,8.29-1.3,8.29,0,0-17.09,3.43-21.68.53-7.58-13.9-11.64-44.12-11.18-63.04.94,24.69,14.27,38.97,18.14,40.84,2.06,1,13.69-2.05,26.37-2.59,12.68-.55,22.09,1,25.7-1.2,3.78-2.3,20.38-49.18,16.18-52.5-4.2-3.31-24.24-11.8-24.24-11.8,18.87,3.11,32.16,11.86,32.76,16.04,1.14,7.94-11.34,73.65-11.34,73.65Z"/>
            <path class="cls-12" d="M86,98.28c-.07.3-3.23,0-8.84-.84,0,0-14.31-4.21-24.51,1.94-7.51,3.7-8.63,2.94-8.86,2.2-.23-.76,12.46-8.31,21.97-8.32,9.51,0,20.31,4.71,20.24,5.01Z"/>
            <path class="cls-9" d="M80.42,108s-3.41,2.58.35,3.52c3.73.93,19.43.25,22.36-.75s-1.07-3.17-1.07-3.17c0,0-13.15,1.4-21.65.41Z"/>
            <path class="cls-9" d="M51.35,107.67s3.43,2.36-.75,3.49c-5.69,1.69-18.02.77-20.98-.17-2.96-.94.06-2.79.06-2.79,0,0,8.89,2.2,21.68-.53Z"/>
            <path class="cls-7" d="M53.56,28.02c3.37-.8,6.82-1.15,10.28-1.26,1.73-.04,3.46,0,5.18.14,1.73.12,3.44.41,5.13.76.12.02.19.14.17.26-.02.11-.13.19-.24.17h0c-1.7-.22-3.39-.42-5.1-.49-1.7-.09-3.41-.13-5.12-.06-1.71.03-3.41.14-5.12.29-1.7.16-3.41.36-5.08.63h0c-.12.02-.24-.06-.26-.19-.02-.12.06-.23.17-.26Z"/>
            <path class="cls-6" d="M65.23,25.09s-.02,0-.03,0c-.08-.01-.15-.07-.17-.15-.7-2.48-1.9-3.84-3.49-3.94-.06,0-.11,0-.17,0-1.7,0-3.57,1.42-4.14,2.81-.04.11-.17.16-.27.11-.11-.04-.16-.17-.11-.27.66-1.6,2.79-3.17,4.72-3.06,1.19.07,2.79.8,3.75,3.84.74-.91,1.9-1.69,3.03-1.59.62.06,1.58.4,2.18,1.8.05.11,0,.23-.11.28-.11.05-.23,0-.28-.11-.42-.97-1.09-1.48-1.84-1.55-1.09-.11-2.27.83-2.9,1.75-.04.06-.1.09-.17.09Z"/>
          </g>
        </g>
      </g>
    </g>
  </g>
</svg>