<svg width="1280" height="832" viewBox="0 0 1280 832" fill="none" xmlns="http://www.w3.org/2000/svg">
<g opacity="0.85" clip-path="url(#clip0_70_13459)">
<mask id="mask0_70_13459" style="mask-type:luminance" maskUnits="userSpaceOnUse" x="0" y="0" width="1280" height="832">
<path d="M1280 0H0V832H1280V0Z" fill="white"/>
</mask>
<g mask="url(#mask0_70_13459)">
<path d="M1280 0H0V832H1280V0Z" fill="#D5F0FF"/>
<g style="mix-blend-mode:screen" opacity="0.4">
<path d="M-7.05078 777.619L30.6879 809.682C61.8345 836.15 105.856 842.691 143.68 826.478C160.597 819.229 174.805 807.061 184.373 791.648C193.888 776.308 198.347 758.503 197.152 740.615C195.147 710.58 186.592 681.304 172.075 654.743L148.864 612.269C131.147 579.852 124.16 542.88 128.875 506.428C131.712 484.443 150.891 467.959 173.621 467.959C179.093 467.959 184.523 468.926 189.632 470.819L220.096 482.103C237.312 488.478 255.744 491.099 274.112 489.778C292.235 488.478 309.845 483.382 325.749 474.823L333.045 470.902C369.792 451.142 402.037 424.299 427.797 392.007C432.117 386.599 435.157 380.328 436.715 373.641C442.272 349.794 465.717 334.142 490.539 337.699C512.725 340.891 535.221 341.546 557.568 339.674L592.192 336.773C597.077 336.367 601.973 337.355 606.293 339.612C612.661 342.951 620.192 343.471 626.965 341.027C633.749 338.583 639.114 333.414 641.717 326.841C646.73 314.174 654.805 302.869 665.248 293.894C694.624 268.643 733.301 256.173 772.341 259.366L807.338 262.236C807.882 262.278 808.437 262.33 808.981 262.382C842.09 265.689 874.389 251.015 893.099 224.183C902.656 210.465 910.603 195.739 916.757 180.284L917.472 178.506C925.941 157.269 930.282 134.68 930.282 111.904C930.282 97.9681 927.488 84.1673 922.037 71.2817C912.608 48.9633 911.221 24.1801 918.112 0.988121L920.917 -8.45508" stroke="#C2FAFF" stroke-width="3" stroke-miterlimit="10"/>
<path d="M-7.05078 734.739L46.4426 782.85C69.4292 803.525 104.971 803.067 127.392 781.82C138.795 771.014 145.237 756.163 145.237 740.657C145.237 717.902 140.395 695.407 131.008 674.575L108.021 623.563C91.9039 587.798 86.6559 548.288 92.8959 509.704C98.2612 476.497 126.56 451.381 160.971 449.28C171.573 448.635 182.187 450.237 192.085 453.96L230.251 468.343C243.456 473.325 257.6 475.499 271.744 474.708C286.048 473.918 300.011 470.122 312.672 463.591L330.336 454.48C360.832 438.745 387.829 417.279 409.792 391.342C415.765 384.28 420.011 375.991 422.219 367.099C429.931 335.941 461.291 316.108 493.621 321.943C513.675 325.562 534.229 325.801 554.368 322.639L575.232 319.363C581.131 318.438 587.168 318.833 592.885 320.539C610.976 325.905 630.421 317.928 639.125 301.559C644.256 291.897 651.328 283.348 659.925 276.411C691.115 251.202 731.595 239.658 771.808 244.515L781.835 245.721C790.155 246.73 798.507 247.385 806.88 247.697C841.205 248.987 873.408 231.567 890.464 202.499C892.843 198.443 894.891 194.21 896.597 189.842L899.232 183.092C909.525 156.718 914.805 128.742 914.805 100.527C914.805 88.8993 912.075 77.4385 906.827 66.9969C898.581 50.5961 896.651 31.8449 901.397 14.1753L907.477 -8.45508" stroke="#C2FAFF" stroke-width="3" stroke-miterlimit="10"/>
<path d="M-7.05078 675.189L66.0585 736.289C73.0345 742.123 83.4665 741.676 89.8985 735.269C94.3892 730.797 95.9999 724.266 94.0905 718.286L81.2799 678.246C61.8559 617.521 59.6692 552.801 74.9652 490.973C84.1812 453.71 118.379 427.45 157.696 427.45C168.299 427.45 178.816 429.385 188.693 433.149L239.968 452.701C246.816 455.312 254.016 456.924 261.344 457.485C275.915 458.609 290.507 455.551 303.317 448.677L344.192 426.764C357.515 419.619 369.632 410.519 380.117 399.776C396.48 383.001 408.458 362.637 415.05 340.402L416.618 335.098C423.232 312.78 424.683 289.307 420.864 266.375C419.531 258.377 417.568 250.484 414.986 242.777L413.472 238.243C408.501 223.413 408.363 207.438 413.067 192.525C414.581 187.741 419.104 184.475 424.235 184.475C428.885 184.475 433.088 187.158 434.944 191.318L448.181 220.896C450.325 225.68 451.424 230.838 451.424 236.059C451.424 252.616 462.443 267.259 478.635 272.23L481.184 273.01C490.56 275.891 499.242 280.602 506.688 286.873C522.304 300.019 542.944 306.02 563.392 303.368L573.088 302.109C577.717 301.506 582.421 301.787 586.933 302.941C602.987 307.039 619.829 299.884 627.669 285.625C630.667 280.176 634.72 275.34 639.594 271.388L646.741 265.595C683.349 235.913 731.85 224.151 778.453 233.657C788.917 235.789 799.68 236.101 810.25 234.582C839.114 230.422 864.128 212.888 877.344 187.512C878.4 185.484 879.37 183.425 880.266 181.324C892.234 153.109 897.28 122.564 894.986 92.1126L894.944 91.5406C894.314 83.179 892.011 75.015 888.16 67.5062C879.701 51.0014 878.923 31.751 886.027 14.6534L893.984 -4.50342" stroke="#C2FAFF" stroke-width="8" stroke-miterlimit="10"/>
<path d="M623.637 640.037C620.715 635.752 621.856 629.97 626.219 627.068L633.141 622.45C643.424 615.586 656.224 613.351 668.32 616.294C673.259 617.5 677.195 621.13 678.688 625.872C680.182 630.614 679.029 635.773 675.637 639.475C672.885 642.491 668.939 644.207 664.8 644.207H631.68C628.459 644.207 625.451 642.637 623.659 640.026L623.637 640.037Z" stroke="#C2FAFF" stroke-width="3" stroke-miterlimit="10"/>
<path d="M1290.22 808.579C1270.19 815.974 1251.01 825.396 1233 836.711L1223.43 842.722" stroke="#C2FAFF" stroke-width="3" stroke-miterlimit="10"/>
<path d="M1290.22 795.08L1269.38 807.466C1261.03 812.427 1252.15 816.431 1242.87 819.406C1229.99 823.534 1216.53 825.646 1202.98 825.646H1192.23C1164.1 825.646 1136.42 818.667 1111.81 805.355C1106.97 802.734 1101.98 800.374 1096.89 798.273C1077.75 790.4 1057.19 786.344 1036.43 786.344H1033.38C1026.43 786.344 1019.93 783.016 1015.99 777.442C1010.2 769.257 1011.23 758.212 1018.44 751.182L1028.02 741.842C1033.26 736.736 1036.46 729.986 1037.06 722.8C1037.98 711.578 1045.21 701.782 1055.81 697.32L1068.47 691.995C1083.03 685.88 1099.65 686.556 1113.63 693.826C1123.08 698.734 1133.86 700.7 1144.48 699.431L1188.04 694.252C1192.63 693.711 1197.24 693.462 1201.86 693.534C1233.44 693.971 1263.46 680.129 1283.14 656.042L1290.21 647.39" stroke="#C2FAFF" stroke-width="3" stroke-miterlimit="10"/>
<path d="M1290.22 633.1L1254.27 663.062C1244.89 670.883 1232.94 675.189 1220.6 675.189C1213.34 675.189 1206.18 673.702 1199.55 670.831C1191.71 667.431 1183.14 665.933 1174.57 666.453L1149.57 667.971C1140.3 668.533 1131.03 667.046 1122.44 663.603C1107.69 657.696 1090.89 659.339 1077.65 668.002C1070.58 672.62 1062.01 674.513 1053.59 673.306C1038.44 671.133 1023.66 679.026 1017.38 692.63L1012.49 703.217C1008.38 712.119 1000.43 718.765 990.773 721.354C976.192 725.275 966.101 738.202 966.101 752.939C966.101 764.202 961.771 775.06 953.963 783.359L950.635 786.906C937.536 800.831 930.272 819.042 930.272 837.939" stroke="#C2FAFF" stroke-width="8" stroke-miterlimit="10"/>
<path d="M1148.11 842.722L1122.81 830.471C1100.47 819.655 1076.44 812.573 1051.7 809.505C1046.76 808.891 1041.78 808.579 1036.8 808.579C1011.51 808.579 986.89 816.494 966.57 831.158L957.152 837.959" stroke="#C2FAFF" stroke-width="3" stroke-miterlimit="10"/>
<path d="M1290.22 676.78C1268.59 696.841 1240.68 709.28 1210.97 712.098L1185.43 714.521C1171.69 715.821 1157.9 716.477 1144.09 716.477H1125.98C1115.5 716.477 1105.02 715.749 1094.65 714.303C1080.51 712.337 1066.92 720.377 1062.2 733.512C1056.85 748.363 1064.55 764.66 1079.61 770.349L1083.71 771.898C1093.76 775.694 1103.39 780.478 1112.46 786.177C1135.72 800.8 1162.83 808.579 1190.51 808.579C1210.08 808.579 1229.44 804.689 1247.42 797.149L1295.91 776.817" stroke="#C2FAFF" stroke-width="3" stroke-miterlimit="10"/>
<path d="M1295.91 762.528L1259.79 778.242C1243.77 785.21 1226.88 790.109 1209.57 792.823C1203.32 793.801 1197 794.289 1190.67 794.289C1173.1 794.289 1155.75 790.504 1139.86 783.203L1112.18 770.484C1108.82 768.934 1106.11 766.293 1104.53 763.017C1102.31 758.399 1102.56 753.012 1105.18 748.592C1107.82 744.182 1112.5 741.312 1117.72 740.906L1155.25 738.005C1167.93 737.027 1180.53 735.488 1193.07 733.418L1218.27 729.237C1243.74 725.015 1268.16 716.102 1290.22 702.988" stroke="#C2FAFF" stroke-width="3" stroke-miterlimit="10"/>
<path d="M1290.22 722.831L1279.97 726.232C1261.3 732.43 1242.22 737.349 1222.86 740.979L1192.85 746.595C1185.85 747.905 1179.67 751.899 1175.71 757.692C1173.72 760.614 1173.03 764.202 1173.82 767.624C1174.61 771.045 1176.81 774.009 1179.89 775.819C1182.75 777.493 1186.15 778.045 1189.42 777.369L1195.9 776.017C1228.76 769.184 1260.5 757.973 1290.22 742.695" stroke="#C2FAFF" stroke-width="3" stroke-miterlimit="10"/>
<path d="M1284.51 603.73L1252.69 639.922C1244.98 648.7 1233.72 653.754 1221.86 653.754C1214.88 653.754 1208.02 652.007 1201.94 648.669C1191.02 642.678 1178.46 640.13 1165.99 641.357L1156.44 642.304C1144.21 643.521 1132.07 639.298 1123.38 630.833C1116.05 623.688 1115.86 612.165 1122.93 604.791C1129.26 598.197 1129.87 588.13 1124.35 580.871L1112.47 565.188C1102.54 552.073 1083.82 548.808 1069.85 557.762C1059.38 564.46 1053.98 576.576 1056.1 588.609L1058.82 604.125C1061.35 618.613 1054.88 633.193 1042.31 641.295C1039.29 643.25 1035.99 644.758 1032.52 645.798L1024.66 648.159C1012.75 651.737 1002.89 659.953 997.408 670.873C991.499 682.666 980.491 691.267 967.392 694.314C944.917 699.566 927.904 717.517 924.32 739.773L924.203 740.469C922.272 752.429 918.123 763.953 911.968 774.477C903.136 789.547 898.485 806.613 898.485 823.971V842.743" stroke="#C2FAFF" stroke-width="3" stroke-miterlimit="10"/>
<path d="M1290.22 558.47L1286.73 564.127C1274.42 584.137 1260.39 603.106 1244.82 620.818L1241.98 624.052C1236.93 629.793 1229.56 633.1 1221.8 633.1C1217.01 633.1 1212.31 631.842 1208.19 629.45C1199.74 624.541 1190.22 621.691 1180.42 621.119L1167.23 620.36C1159.93 619.934 1154.23 614.037 1154.23 606.902V585.822C1154.23 568.589 1145.95 552.344 1131.87 541.934C1114.67 529.214 1091.52 527.176 1072.25 536.682L1065.83 539.843C1048.63 548.34 1037.77 565.542 1037.77 584.355C1037.77 601.37 1028.89 617.198 1014.19 626.371C1002.79 633.474 992.235 641.763 982.667 651.092L972.981 660.535C966.272 667.077 958.443 672.422 949.845 676.333C927.669 686.41 911.328 705.692 905.355 728.822L903.584 735.696C900.203 748.81 896.16 761.758 891.488 774.488L889.12 780.926C882.4 799.23 878.955 818.522 878.955 837.959" stroke="#C2FAFF" stroke-width="3" stroke-miterlimit="10"/>
<path d="M1290.22 528.299L1262.85 550.087C1254.5 556.733 1246.41 563.69 1238.6 570.929L1222.75 585.624C1219.02 589.087 1214.05 591.022 1208.9 591.022C1200.7 591.022 1193.34 586.186 1190.26 578.781L1190.1 578.396C1182.14 559.27 1168.07 543.14 1149.99 532.407C1120.75 515.05 1084.35 513.729 1053.86 528.913L1053.42 529.131C1037.16 537.222 1024.96 551.377 1019.55 568.37C1013.56 587.236 999.211 602.493 980.459 609.95L962.912 616.928C953.685 620.599 946.891 628.43 944.693 637.894C943.264 644.062 939.851 649.626 934.955 653.775L931.925 656.344C904.512 679.578 886.112 711.266 879.787 746.138C879.243 749.112 878.613 752.076 877.899 755.019L875.093 766.49C872.288 778.003 866.987 788.788 859.552 798.138C850.496 809.526 845.589 823.534 845.589 837.938" stroke="#C2FAFF" stroke-width="3" stroke-miterlimit="10"/>
<path d="M826.837 842.722V840.424C826.837 823.285 832.043 806.53 841.792 792.261C848.053 783.109 852.469 772.876 854.805 762.112L858.88 743.361C866.144 709.977 882.965 679.276 907.403 654.846C914.336 647.909 919.04 639.142 920.917 629.626C924.203 612.997 935.968 599.154 952.117 592.925L971.424 585.478C987.424 579.311 1000.64 567.777 1008.68 552.957C1014.9 541.497 1024.26 531.939 1035.7 525.325C1077.55 501.165 1128.54 497.359 1173.66 515.039L1182.15 518.367C1186.84 520.197 1191.19 522.745 1195.05 525.897C1209.78 537.929 1230.46 540.207 1247.57 531.689L1295.89 507.634" stroke="#C2FAFF" stroke-width="3" stroke-miterlimit="10"/>
<path d="M1290.22 496.537C1251.11 510.265 1208.02 508.258 1170.43 490.973L1161.19 486.72C1149.03 481.125 1135.99 477.609 1122.61 476.32C1093.19 473.491 1063.77 481.561 1040.19 498.95L1016.11 516.703C1012.11 519.657 1008.47 523.047 1005.26 526.812C991.019 543.556 968.981 552.021 946.859 549.245L935.648 547.841C928.917 546.998 922.069 547.841 915.765 550.264C900.437 556.171 890.368 570.606 890.368 586.674C890.368 598.135 885.877 609.159 877.813 617.489C868.117 627.515 862.709 640.775 862.709 654.555V656.853C862.709 671.788 859.179 686.514 852.384 699.889C847.872 708.77 844.789 718.276 843.232 728.073L839.819 749.549C837.717 762.777 832.469 775.341 824.491 786.229C813.845 800.758 808.128 818.168 808.128 836.025V842.712" stroke="#C2FAFF" stroke-width="8" stroke-miterlimit="10"/>
<path d="M794.261 842.722V825.677C794.261 811.346 798.048 797.254 805.259 784.753C812.469 772.262 816.256 758.17 816.256 743.829V740.574C816.256 721.438 819.317 702.426 825.333 684.206C829.568 671.372 831.733 657.987 831.733 644.509C831.733 627.172 839.488 610.709 852.96 599.394C861.813 591.968 867.403 581.506 868.565 570.17C869.984 556.286 878.027 543.868 890.261 536.63L904.299 528.33C917.291 520.655 932.853 518.242 947.648 521.622C965.877 525.782 985.045 521.123 999.136 509.111L1018.19 492.866C1045.93 469.196 1081.91 456.768 1118.74 458.11C1138.12 458.817 1157.16 463.33 1174.72 471.359L1182.38 474.864C1216.14 490.318 1254.59 492.939 1290.22 482.206" stroke="#C2FAFF" stroke-width="3" stroke-miterlimit="10"/>
<path d="M1287.78 465.566C1255.05 472.774 1220.8 469.123 1190.44 455.218L1185.49 452.951C1165.93 443.986 1144.73 438.88 1123.13 437.944C1085.3 436.301 1048.06 447.481 1017.75 469.581L1017.33 469.882C991.627 488.613 959.893 497.754 927.883 495.654C920.811 495.186 913.707 495.529 906.72 496.662C876.651 501.55 851.072 520.738 838.528 547.83L838.187 548.579C836.597 552.011 835.061 555.454 833.568 558.917L831.093 564.668C820.181 590.044 813.259 616.876 810.549 644.259C808.928 660.618 805.803 676.801 801.216 692.619L799.392 698.901C796 710.58 794.283 722.655 794.283 734.781C794.283 751.036 791.2 767.146 785.184 782.299C778.283 799.677 774.741 818.158 774.741 836.794V842.733" stroke="#C2FAFF" stroke-width="3" stroke-miterlimit="10"/>
<path d="M1287.78 438.568C1254.56 449.696 1218.08 446.742 1187.21 430.425C1174.53 423.717 1160.85 418.954 1146.68 416.312L1141.07 415.262C1114.47 410.29 1087.02 411.944 1061.25 420.066C1044.09 425.485 1027.99 433.701 1013.65 444.382C989.504 462.363 960.587 473.231 930.304 475.686L914.72 476.954C903.925 477.828 893.237 479.731 882.816 482.612C847.392 492.419 818.411 517.296 803.947 550.316C791.499 578.698 763.755 597.865 732.171 599.882C725.269 600.33 718.336 599.934 711.531 598.718L698.347 596.367C670.133 591.334 641.024 594.911 614.976 606.601C607.755 609.846 602.165 615.753 599.445 623.033C595.541 633.485 598.091 645.185 606.016 653.182C612.896 660.119 622.091 664.414 631.947 665.288L669.355 668.595C688.683 670.301 708.096 666.422 725.173 657.436C739.829 649.719 758.016 653.037 768.832 665.382C775.189 672.641 778.176 682.157 777.067 691.642L776.981 692.349C775.477 705.245 774.731 718.203 774.731 731.182C774.731 748.155 770.837 764.91 763.349 780.239C754.272 798.782 750.517 819.385 752.469 839.842L752.747 842.722" stroke="#C2FAFF" stroke-width="3" stroke-miterlimit="10"/>
<path d="M1290.22 409.989C1259.71 425.859 1223.07 425.734 1192.66 409.677C1186.04 406.182 1179.21 403.062 1172.22 400.327L1160.31 395.678C1152.3 392.548 1145.17 387.587 1139.55 381.202C1127.86 367.931 1110.13 361.244 1092.32 363.376C1072.25 365.789 1053.55 374.546 1039.05 388.294L1023.58 402.99C987.776 436.998 939.754 456.03 889.77 456.03C878.805 456.03 867.893 457.34 857.259 459.93C826.443 467.438 801.291 489.081 789.813 517.951C776.299 551.938 742.763 574.33 705.387 574.33C701.675 574.33 697.963 574.111 694.283 573.664L673.077 571.106C644 567.601 614.784 576.472 592.875 595.452C586.56 600.922 579.403 605.384 571.669 608.67C560.043 613.61 553.717 625.955 556.64 637.988C558.112 644.041 561.792 649.366 567.008 652.954C596.192 673.088 631.061 683.904 666.805 683.904C683.36 683.904 699.883 682.698 716.256 680.306L718.485 679.983C731.669 678.059 744.64 684.528 750.752 696.082C753.131 700.596 754.315 705.619 754.197 710.684C753.781 727.667 749.344 744.318 741.216 759.346C727.669 784.389 724.075 813.426 731.115 840.892L731.584 842.702" stroke="#C2FAFF" stroke-width="3" stroke-miterlimit="10"/>
<path d="M704.683 842.722L703.275 830.731C700.448 806.717 702.976 782.402 710.688 759.429C712.629 753.657 712.971 747.489 711.701 741.541C708.501 726.637 695.712 715.52 680.16 714.126L661.269 712.431C650.069 711.422 639.008 709.321 628.235 706.16C597.344 697.081 569.781 679.525 548.853 655.574L533.216 637.676C527.829 631.519 525.557 623.324 527.029 615.357C528.64 606.58 534.581 599.144 542.912 595.473L549.344 592.633C558.955 588.39 568.021 583.065 576.352 576.763C603.349 556.337 637.312 546.697 671.328 549.817L704.341 552.843C710.507 553.405 716.725 552.978 722.741 551.574C740.533 547.425 755.157 535.121 761.984 518.575L768.683 502.32C780.768 472.981 805.579 450.382 836.416 440.617C847.339 437.153 858.763 435.396 870.251 435.396H875.915C925.664 435.396 969.12 402.605 981.589 355.649C983.211 349.544 985.387 343.585 988.085 337.854L1007.55 296.587C1014.99 280.821 1021.41 264.617 1026.76 248.071L1037.31 215.519C1045.19 191.183 1055.37 167.596 1067.69 145.08L1089.03 106.059C1097.02 91.4575 1109.3 79.5183 1124.31 71.7703C1142.91 62.1711 1165.93 67.2671 1178.45 83.7615C1183.87 90.9063 1186.81 99.5591 1186.81 108.451V140.681C1186.81 169.801 1183.67 198.848 1177.45 227.333L1170.59 258.762C1168.94 266.323 1165.61 273.447 1160.82 279.614C1147.08 297.346 1146.19 321.568 1158.57 340.225L1165.28 350.334C1176.66 367.473 1193.06 380.889 1212.34 388.835C1216.96 390.738 1221.05 393.713 1224.22 397.498C1233.31 408.335 1248.86 411.621 1261.74 405.433L1290.24 391.726" stroke="#C2FAFF" stroke-width="8" stroke-miterlimit="10"/>
<path d="M1295.91 379.018L1257.49 367.442C1253.62 366.278 1249.4 367.432 1246.71 370.396C1244.74 372.57 1241.91 373.807 1238.93 373.797C1235.96 373.786 1233.13 372.518 1231.19 370.323L1224.81 363.147C1220.43 358.207 1213.72 355.857 1207.1 356.928C1202.45 357.687 1197.7 356.408 1194.1 353.434C1190.51 350.459 1188.43 346.102 1188.43 341.505C1188.43 336.18 1185.65 331.23 1181.06 328.349C1174.04 323.95 1169.16 316.95 1167.55 308.974C1165.94 300.997 1167.74 292.718 1172.53 286.062C1187.52 265.221 1197.25 241.228 1200.92 216.029C1203.43 198.744 1204.32 181.272 1203.55 163.831L1201.08 107.526C1200.48 93.9952 1195.98 80.912 1188.07 69.7736C1175.81 52.4784 1154.57 43.4408 1133.22 46.4152C1122.46 47.9128 1112.37 52.3848 1104.14 59.2904C1091.25 70.1064 1080.86 83.4808 1073.69 98.5088L1040.93 167.076C1036.65 176.03 1032.69 185.141 1029.08 194.376L1013.08 235.227C1004.58 256.953 994.208 277.94 982.112 297.97L978.965 303.17C969.867 318.24 962.347 334.162 956.523 350.698C942.763 389.771 905.067 416.01 862.699 416.01C858.347 416.01 853.995 415.73 849.675 415.168C801.685 408.97 756.107 437.424 741.792 482.508L738.635 492.45C736.128 500.354 731.68 507.541 725.675 513.396C715.883 522.943 702.603 528.31 688.757 528.31H661.877C630.912 528.31 600.693 537.638 575.381 555.027C562.848 563.628 549.035 570.315 534.432 574.85L515.595 580.694C507.467 583.222 500.949 589.212 497.899 596.981C494.325 606.081 496 616.346 502.272 623.927L517.525 642.346C548.064 679.224 585.899 709.738 628.779 732.066C633.237 734.386 637.739 736.611 642.293 738.754L648.544 741.686C667.861 750.755 681.301 768.591 684.395 789.277C684.896 792.626 685.12 796.006 685.056 799.386L684.331 842.743" stroke="#C2FAFF" stroke-width="3" stroke-miterlimit="10"/>
<path d="M668.032 842.722L662.645 802.682C661.899 797.108 660.395 791.648 658.187 786.458C651.456 770.64 638.517 758.098 622.24 751.629C595.424 740.979 570.72 725.837 549.248 706.888L512.971 674.887C497.813 661.523 485.685 645.216 477.355 627.016C471.744 614.754 471.925 600.704 477.877 588.588C483.339 577.45 493.195 568.932 505.195 564.97L516.736 561.163C531.733 556.213 545.888 549.11 558.741 540.093C585.856 521.061 618.411 510.827 651.819 510.827H679.467C693.376 510.827 706.56 504.806 715.467 494.385C719.627 489.518 722.699 483.86 724.501 477.776L729.952 459.316C742.848 415.657 787.776 388.794 833.536 397.405C841.515 398.902 849.675 399.35 857.771 398.715C899.701 395.45 935.499 367.931 948.555 328.952C951.008 321.63 954.091 314.527 957.771 307.715L979.968 266.646C987.531 252.647 994.283 238.233 1000.16 223.486L1027.21 155.657C1029.89 148.938 1032.75 142.293 1035.78 135.72L1057 89.7312C1064.17 74.1936 1074.57 60.2784 1087.53 48.8488C1102.3 35.828 1120.81 27.5288 1140.55 25.0744C1165.18 22.0064 1189.65 31.772 1205 50.7936C1214.31 62.3376 1219.61 76.4816 1220.09 91.156L1222.7 170.737C1223.18 185.182 1222.88 199.638 1221.8 214.063L1221.78 214.375C1219.63 243.464 1212.38 271.97 1200.37 298.678C1197.24 305.656 1198.08 313.737 1202.61 319.956C1205.02 323.263 1208.34 325.853 1212.19 327.413C1234.18 336.346 1257.53 341.661 1281.29 343.158L1295.88 344.074" stroke="#C2FAFF" stroke-width="3" stroke-miterlimit="10"/>
<path d="M1300.8 301.205L1276.25 311.106C1265.71 315.359 1253.65 313.945 1244.45 307.372C1234.99 300.612 1229.95 289.432 1231.27 278.065L1232.68 265.938C1233.58 258.222 1234.25 250.484 1234.7 242.736L1237.01 202.946C1237.73 190.653 1237.89 178.339 1237.48 166.026L1235.14 94.5256C1234.41 72.54 1226.3 51.3968 1212.04 34.3408C1204.19 24.9496 1194.66 17.0144 1183.91 10.9408L1156.66 -4.48242" stroke="#C2FAFF" stroke-width="3" stroke-miterlimit="10"/>
<path d="M1133.86 -4.49268L1098.57 16.0161C1093.9 18.7305 1088.81 20.7273 1083.51 21.9337C1066.59 25.7713 1052.7 37.4713 1046.36 53.2377L1038.43 72.9353C1033.64 84.8329 1029.42 96.9385 1025.77 109.221L1018.05 135.211C1014.9 145.829 1011.32 156.312 1007.31 166.65L997.088 193.014C991.083 208.489 984.149 223.6 976.299 238.275L944.885 297.003C940.843 304.564 937.269 312.364 934.187 320.341C922.155 351.489 890.795 371.415 856.715 369.575C855.797 369.523 854.891 369.46 853.973 369.377L787.008 363.439C762.667 361.286 738.923 371.571 724.256 390.635C717.291 399.693 712.725 410.28 710.976 421.471L709.195 432.817C705.419 456.862 688.299 476.882 664.715 484.827C660.427 486.273 656 487.292 651.499 487.864L619.499 491.951C600.011 494.437 581.387 501.353 565.141 512.138C556.309 518.003 545.856 521.144 535.168 521.144C522.304 521.144 510.059 526.552 501.579 535.974C491.616 547.03 476.608 552.448 461.664 550.368L454.507 549.37C445.429 548.101 436.288 551.262 430.048 557.814C423.125 565.074 420.8 575.432 423.957 584.854L424.309 585.905C433.632 613.746 447.616 639.881 465.707 663.26C483.211 685.891 504.331 705.64 528.256 721.75L558.315 741.999C566.848 747.75 575.723 753.012 584.885 757.765C617.131 774.488 640.779 803.556 650.123 837.98" stroke="#C2FAFF" stroke-width="3" stroke-miterlimit="10"/>
<path d="M631.392 837.959C617.611 809.536 595.211 785.907 567.232 770.276L518.059 742.809C510.571 738.629 502.677 735.186 494.485 732.534C452.896 719.045 421.088 686.025 409.888 644.706L405.216 627.473C402.357 616.938 399.925 606.299 397.931 595.577L395.029 580.039C392.576 566.904 396.395 553.405 405.387 543.348C413.931 533.79 426.304 528.299 439.317 528.299H452.192C466.187 528.299 479.467 522.298 488.501 511.888C499.339 499.418 516.096 493.417 532.64 496.111C546.944 498.43 561.621 495.57 573.888 488.051L601.621 471.068C612.608 464.339 625.109 460.304 638.048 459.305C662.987 457.381 683.552 439.493 688.32 415.542C690.197 406.109 694.624 397.321 701.12 390.093C727.499 360.786 766.475 345.259 806.357 348.192L864.491 352.456C882.731 353.797 900.288 345.436 910.443 330.605C911.168 329.545 911.851 328.463 912.491 327.35L946.656 267.904C958.507 247.281 968.533 225.711 976.629 203.434L998.549 143.093C1003.51 129.428 1007.74 115.513 1011.22 101.41L1015.99 82.087C1025.59 43.1494 1053.63 11.003 1091.52 -4.47217" stroke="#C2FAFF" stroke-width="3" stroke-miterlimit="10"/>
<path d="M1052.62 -4.49268L1049.49 -3.13028C1026.49 6.88492 1010.39 27.7473 1006.89 52.0729C1006.3 56.1705 1005.34 60.2057 1004.04 64.1369L989.493 107.921C988.011 112.372 986.613 116.855 985.28 121.358L972.885 163.436C965.653 187.991 956.117 211.859 944.405 234.707L925.077 272.387C922.293 277.815 918.997 282.974 915.221 287.799C896.469 311.751 867.338 325.811 836.437 325.811H828.544C821.44 325.811 814.336 325.988 807.232 326.331L805.227 326.425C761.045 328.578 719.392 347.121 688.768 378.248C682.645 384.478 678.208 392.101 675.883 400.431C670.571 419.401 654.688 433.805 634.891 437.58C619.125 440.586 604.117 446.555 590.699 455.167L585.834 458.287C572.106 467.095 555.658 470.985 539.317 469.279C516.821 466.939 494.517 475.207 479.296 491.525C468.597 502.996 454.304 510.703 438.645 513.427L414.25 517.671C401.386 519.907 389.685 526.344 381.066 535.912C370.837 547.279 365.728 562.182 366.901 577.252L368.512 597.906C369.461 610.147 372.512 622.159 377.525 633.423C382.218 643.979 385.194 655.19 386.336 666.64L388.906 692.515C390.357 707.055 396.394 720.793 406.208 731.827C419.925 747.271 439.85 756.143 460.81 756.143C479.232 756.143 497.386 760.479 513.717 768.789L514.762 769.319C547.296 785.866 577.504 806.447 604.64 830.534L618.325 842.681" stroke="#C2FAFF" stroke-width="8" stroke-miterlimit="10"/>
<path d="M579.264 842.722L566.389 832.114C543.861 813.561 516.832 800.945 487.882 795.485C483.658 794.685 479.402 794.05 475.136 793.561L457.845 791.596C432.565 788.715 408.992 777.691 390.858 760.281C374.09 744.182 362.826 723.424 358.592 700.856L349.792 653.848C348.597 647.441 347.552 641.004 346.656 634.556L340.405 589.243C336.97 564.325 345.525 539.261 363.594 521.331C374.677 510.328 388.736 502.632 404.128 499.117L435.573 491.941C449.322 488.8 461.141 480.293 468.256 468.416C477.92 452.285 495.978 442.728 515.114 443.622L524.266 444.049C547.776 445.141 571.008 438.651 590.357 425.578C599.669 419.286 610.293 415.064 621.461 413.202C642.261 409.739 659.669 395.897 667.317 376.719C670.464 368.836 675.317 361.712 681.568 355.836C707.626 331.292 741.322 315.9 777.333 312.083L806.528 308.984C810.282 308.589 814.058 308.381 817.834 308.381C855.584 308.381 890.389 288.527 908.896 256.453L912.106 250.889C914.421 246.865 916.81 242.881 919.274 238.94L924.501 230.557C946.133 195.811 962.432 158.173 972.864 118.82L977.152 102.648C980.074 91.6342 981.546 80.2982 981.546 68.9206C981.546 45.2918 987.925 22.079 1000.03 1.61183L1005.98 -8.43457" stroke="#C2FAFF" stroke-width="3" stroke-miterlimit="10"/>
<path d="M1055.47 315.318C1047.22 310.981 1041.78 302.858 1041.01 293.758C1039.5 275.631 1041.83 257.4 1047.9 240.209L1058.67 209.674C1060.48 204.547 1061.89 199.295 1062.89 193.96C1065.65 179.338 1071.45 165.422 1079.91 153.057L1102.95 119.413C1109.93 109.221 1118.65 100.277 1128.73 92.9655C1139.49 85.1551 1154.69 87.1831 1162.9 97.5207C1166.24 101.733 1168.05 106.902 1168.05 112.226V133.671C1168.05 158.506 1165.77 183.3 1161.24 207.74L1159.14 219.045C1154.85 242.174 1144.25 263.754 1128.46 281.507C1116.44 295.038 1101.7 306.02 1085.14 313.768L1080.61 315.89C1072.61 319.634 1063.26 319.426 1055.46 315.318H1055.47Z" stroke="#C2FAFF" stroke-width="3" stroke-miterlimit="10"/>
<path d="M1070.97 251.472C1069.08 259.095 1071.72 267.114 1077.81 272.23C1085.73 278.876 1097.4 279.011 1105.46 272.542C1120.31 260.645 1131.58 245.045 1138.1 227.417C1144.75 209.425 1149.63 190.85 1152.66 171.954L1155.74 152.786C1156.34 149.094 1155.98 145.319 1154.7 141.794C1152.09 134.607 1145.92 129.199 1138.3 127.431C1130.7 125.663 1122.69 127.774 1117.02 133.037C1110.39 139.204 1105.18 146.682 1101.75 154.97L1096.39 167.877C1088.52 186.867 1082.09 206.388 1077.16 226.304L1070.93 251.472H1070.97Z" stroke="#C2FAFF" stroke-width="3" stroke-miterlimit="10"/>
<path d="M1128.04 186.846C1124.1 189.29 1119.05 189.27 1115.13 186.805C1111.2 184.34 1109.09 179.868 1109.74 175.354C1110.07 173.025 1111.11 170.851 1112.74 169.104L1116.23 165.339C1119.51 161.824 1124.55 160.43 1129.23 161.772C1133.9 163.114 1137.38 166.93 1138.18 171.621C1139.02 176.53 1136.76 181.449 1132.45 184.122L1128.04 186.846Z" stroke="#C2FAFF" stroke-width="3" stroke-miterlimit="10"/>
<path d="M979.936 -8.45508L978.432 -5.71988C964.459 19.5833 957.141 47.8817 957.141 76.6273C957.141 89.2113 955.733 101.764 952.96 114.057L952.213 117.354C946.293 143.531 937.429 169 925.792 193.295C918.475 208.572 909.803 223.205 899.883 237.027C880.32 264.275 849.941 282.287 816.128 286.676C810.784 287.373 805.408 287.716 800.021 287.716H779.488C740.181 287.716 702.187 301.548 672.491 326.664C666.325 331.885 661.259 338.208 657.557 345.311C646.784 365.997 625.013 379.028 601.216 379.028H595.157C581.333 379.028 568.064 384.384 558.293 393.921C547.797 404.155 533.333 409.542 518.517 408.731L504.224 407.951C478.315 406.536 453.995 420.16 442.197 442.687C435.509 455.458 424.608 465.66 411.253 471.661L407.947 473.148C369.387 490.475 336.96 518.554 314.763 553.842C312.491 557.461 310.059 560.987 307.477 564.408C291.285 585.895 285.237 613.09 290.848 639.194C292.021 644.654 293.696 650.01 295.851 655.19L319.989 713.242C326.155 728.062 334.037 742.154 343.488 755.227C367.168 787.998 400 813.467 438.069 828.61L461.621 837.97" stroke="#C2FAFF" stroke-width="3" stroke-miterlimit="10"/>
<path d="M395.222 842.722L388.011 838.074C357.824 818.605 331.872 793.52 311.638 764.244C298.454 745.181 287.851 724.537 280.064 702.832L267.318 667.264C264.096 658.278 261.963 648.96 260.971 639.496C257.75 608.847 266.55 578.146 285.611 553.571L292.662 544.482C296.278 539.822 297.782 533.936 296.854 528.174C295.926 522.402 292.619 517.254 287.723 513.906C284.022 511.378 279.606 510.016 275.083 510.016H245.014C232.288 510.016 219.627 508.373 207.339 505.118C185.472 499.335 162.656 510.619 154.55 531.253C149.238 544.762 151.232 559.978 159.883 571.74L164.779 578.406C181.024 600.517 195.008 624.135 206.518 648.908L211.446 659.495C221.494 681.117 227.136 704.444 228.054 728.166C229.558 766.99 218.347 805.272 196.054 837.481L192.438 842.702" stroke="#C2FAFF" stroke-width="3" stroke-miterlimit="10"/>
<path d="M243.744 842.722L245.269 833.81C249.131 811.21 251.072 788.33 251.072 765.419V760.989C251.072 752.731 257.237 745.711 265.6 744.432C272.555 743.371 279.477 746.564 283.051 752.471L308.608 794.716C312.597 801.31 316.768 807.789 321.12 814.143L340.651 842.712" stroke="#C2FAFF" stroke-width="3" stroke-miterlimit="10"/>
<path d="M237.461 597.989C236.469 604.437 231.317 609.513 224.725 610.563C218.133 611.613 211.595 608.379 208.555 602.576C208.128 601.754 207.616 600.974 207.04 600.246L174.304 558.75C169.867 553.134 168.683 545.698 171.157 539.032C174.901 528.913 185.963 523.255 196.64 526.001L218.091 531.523C219.989 532.012 221.941 532.293 223.915 532.355C233.376 532.657 241.931 537.919 246.272 546.125C250.624 554.32 250.08 564.179 244.864 571.875C241.984 576.118 240.096 580.923 239.328 585.946L237.472 597.989H237.461Z" stroke="#C2FAFF" stroke-width="3" stroke-miterlimit="10"/>
<path d="M878.955 -8.45508L870.421 7.07212C860.459 25.1993 860.235 46.9353 869.824 65.2601C873.173 71.6561 875.371 78.5617 876.32 85.6753C880.181 114.515 876.117 143.832 864.555 170.643L858.613 184.423C850.475 203.279 833.099 216.84 812.448 220.428C804.213 221.863 795.765 221.655 787.616 219.815L773.621 216.663C727.68 206.295 679.392 215.519 640.864 242.019C634.325 246.511 628.683 252.117 624.203 258.575C611.893 276.307 591.36 286.926 569.397 286.926C557.611 286.926 545.931 284.846 534.912 280.79C521.621 275.891 508.811 269.839 496.629 262.715L489.589 258.596C480.075 253.022 474.251 242.996 474.251 232.18C474.251 226.949 472.885 221.811 470.283 217.235L439.381 162.885C435.456 155.979 427.232 152.537 419.392 154.523C413.941 155.907 409.483 159.723 407.371 164.809L402.741 176.01C393.632 198.047 391.915 222.331 397.824 245.378C399.36 251.368 400.384 257.473 400.896 263.63C403.083 290.056 400.267 316.649 392.597 342.087L391.008 347.35C388.949 354.162 386.197 360.766 382.784 367.047C371.84 387.213 354.517 403.395 333.387 413.192L297.76 429.718C287.392 434.533 276.128 437.268 264.651 437.757C251.968 438.308 239.317 436.114 227.616 431.33L174.656 409.687C162.859 404.872 150.144 402.574 137.365 402.948C105.877 403.884 77.216 420.899 61.9093 447.751L52.9173 463.539C34.848 495.248 23.9253 530.338 20.864 566.488C19.616 581.246 19.6906 596.076 21.0773 610.823L21.568 615.992C22.3786 624.614 18.4213 633.007 11.168 638.009C3.92531 643.011 -5.51469 643.875 -13.5894 640.266" stroke="#C2FAFF" stroke-width="3" stroke-miterlimit="10"/>
<path d="M858.603 -4.49268C848.064 18.1065 845.803 43.5553 852.192 67.5897L852.214 67.6625C853.216 71.4273 854.08 75.2337 854.806 79.0609C860.48 109.044 857.472 139.984 846.134 168.397L842.347 177.871C836.779 191.818 824.075 201.875 808.939 204.339C802.507 205.39 795.904 205.005 789.643 203.237L774.475 198.942C726.294 185.307 674.358 193.939 633.526 222.373C623.467 229.372 614.464 237.713 606.774 247.146C596.096 260.239 579.872 267.873 562.71 267.873C555.371 267.873 548.096 266.469 541.312 263.755L521.995 256.017C503.648 248.664 491.019 231.983 489.227 212.732C488.47 204.62 485.771 196.799 481.334 189.894L449.174 139.828C446.923 136.323 443.862 133.38 440.224 131.238C428.15 124.103 412.47 127.192 404.182 138.331L389.11 158.579C384.523 164.736 380.683 171.392 377.664 178.412C369.494 197.371 367.584 218.338 372.192 238.399L376.491 257.14C378.134 264.306 379.243 271.575 379.798 278.897C381.387 299.822 377.622 320.799 368.832 339.955C359.467 360.371 344.726 377.999 326.102 391.051L323.254 393.047C303.083 407.181 278.88 414.783 254.038 414.783C237.078 414.783 220.32 411.237 204.896 404.383L162.56 385.58C151.702 380.755 139.872 378.342 127.936 378.498C101.984 378.841 77.7815 391.321 62.8695 412.027L56.6722 420.639C23.1895 467.033 -0.149129 519.626 -11.9571 575.162L-13.5571 582.681" stroke="#C2FAFF" stroke-width="3" stroke-miterlimit="10"/>
<path d="M-13.5571 482.238L23.9895 433.295C29.6109 425.963 34.9869 418.454 40.1069 410.769L62.1015 377.759C66.4322 371.249 72.0322 365.633 78.5815 361.223C93.9202 350.896 113.259 347.984 131.083 353.309L143.488 357.011C150.07 358.977 156.598 361.098 163.083 363.376L209.59 379.714C215.808 381.898 222.176 383.614 228.662 384.852C259.52 390.738 291.488 383.562 316.598 365.092C321.238 361.681 325.6 357.916 329.632 353.829C352.224 330.97 363.894 299.894 361.782 268.216L360.907 255.07C360.448 248.269 359.147 241.55 357.003 235.061C350.187 214.344 351.958 191.859 361.942 172.401C368.918 158.808 377.579 146.11 387.755 134.597L393.782 127.774C406.198 113.714 426.688 109.418 443.947 117.25C450.464 120.214 456.107 124.738 460.352 130.406L498.155 180.95C502.272 186.451 505.419 192.577 507.488 199.077C512.213 213.949 523.606 225.93 538.464 231.639C557.003 238.763 578.07 235.061 592.896 222.082C603.339 212.94 614.827 204.994 627.136 198.411C668.832 176.093 717.259 168.802 763.915 177.83L779.339 180.814C789.046 182.697 799.126 181.47 808.064 177.33C820.022 171.798 828.949 161.512 832.587 149.105C838.421 129.199 838.155 108.077 831.819 88.3168C824.758 66.3 821.312 43.3264 821.611 20.2592L821.973 -8.44482" stroke="#C2FAFF" stroke-width="3" stroke-miterlimit="10"/>
<path d="M-13.5571 456.04L-0.586463 438.246C10.8162 422.604 21.0989 406.203 30.1762 389.178L35.7122 378.81C43.9255 363.407 56.5869 350.698 72.1282 342.243C92.8749 330.959 117.334 328.026 140.267 334.069L162.784 340.007C177.12 343.782 191.243 348.296 205.099 353.506L221.067 359.518C249.28 370.136 281.142 365.539 305.003 347.412C324.086 332.904 336.021 311.23 337.888 287.706L339.317 269.63C340.203 258.492 338.976 247.281 335.702 236.579C329.931 217.714 330.582 197.538 337.568 179.067C345.536 157.986 357.419 138.528 372.64 121.659L376.214 117.697C395.84 95.94 427.531 88.868 454.912 100.121C469.014 105.914 480.736 116.116 488.246 129.116L506.165 160.129C508.213 163.665 510.198 167.232 512.139 170.83L529.483 203.018C532.694 208.988 538.069 213.574 544.565 215.894C553.504 219.086 563.499 217.62 571.062 211.983L593.867 195.031C602.582 188.542 611.755 182.655 621.312 177.403C661.344 155.397 708.342 148.73 753.142 158.694C767.744 161.938 783.072 158.267 794.464 148.782C807.435 137.977 813.451 121.212 810.219 104.884C804.502 76.0032 802.134 46.592 803.158 17.2016L804.053 -8.44482" stroke="#C2FAFF" stroke-width="3" stroke-miterlimit="10"/>
<path d="M782.048 -8.45508L779.797 17.5865C777.525 43.8777 780.821 70.3457 789.504 95.3473C792.533 104.083 791.638 113.662 787.03 121.711C779.744 134.431 764.693 140.91 750.144 137.571L743.04 135.939C701.131 126.329 657.045 132.611 619.723 153.525C611.232 158.278 603.189 163.748 595.659 169.853L588.928 175.313C581.013 181.74 570.699 184.631 560.491 183.269C550.283 181.907 541.141 176.426 535.285 168.168C534.741 167.409 534.229 166.619 533.749 165.818L505.931 119.132C496.917 104.011 483.627 91.7385 467.637 83.7929C432.907 66.5289 390.827 72.1345 362.123 97.8537C353.813 105.29 346.624 113.828 340.736 123.209L339.285 125.528C322.496 152.308 312.256 182.489 309.344 213.741C308.501 222.737 309.515 231.806 312.32 240.417C316.459 253.136 316.661 266.771 312.896 279.604L302.069 316.555C299.115 326.623 292.48 335.286 283.413 340.891C271.317 348.369 256.224 349.607 243.019 344.209L232.309 339.831C203.115 327.891 172.64 319.155 141.451 313.789L117.227 309.619C109.323 308.256 101.259 308.048 93.2908 309.005C71.3175 311.636 51.4135 322.92 38.1975 340.236L28.0961 353.465C15.5201 369.949 1.58946 385.393 -13.5679 399.662" stroke="#C2FAFF" stroke-width="8" stroke-miterlimit="10"/>
<path d="M-13.5571 365.518L3.91487 343.855C12.3309 333.424 21.2482 323.388 30.6455 313.789L32.0429 312.364C46.7522 297.336 66.4322 287.861 87.6162 285.615C99.2962 284.377 111.126 285.365 122.411 288.548L189.654 307.445C193.686 308.578 197.739 309.649 201.803 310.669L235.275 319.041C249.366 322.566 264.342 319.592 275.894 310.981C286.304 303.222 292.95 291.616 294.283 278.907L295.851 263.9C296.939 253.479 295.275 242.954 291.008 233.334C285.206 220.23 284.267 205.566 288.342 191.859L290.016 186.212C300.299 151.632 318.507 119.777 343.264 93.0486C348.587 87.3078 354.198 81.8166 360.064 76.6062L376.075 62.3998C394.699 45.8742 420.47 39.343 444.982 44.9486C453.558 46.9038 461.718 50.2942 469.11 54.9638L500.779 74.9734C510.614 81.1822 518.688 89.6894 524.288 99.7254C533.771 116.719 550.176 129.012 569.472 133.567C588.758 138.112 609.12 134.493 625.515 123.604C644.608 110.916 667.574 104.946 690.614 106.693L721.792 109.054L723.979 109.221C735.211 110.063 746.123 105.341 753.014 96.647C759.904 87.9526 761.856 76.471 758.198 66.0814C756.747 61.9526 756.15 57.5742 756.47 53.2166L760.886 -8.46582" stroke="#C2FAFF" stroke-width="3" stroke-miterlimit="10"/>
<path d="M741.333 -4.49268V46.6649C741.333 50.1177 740.821 53.5601 739.829 56.8777C735.776 70.3041 724.149 80.2569 709.963 82.4305L707.531 82.8049C696.96 84.4169 686.325 85.6545 675.659 86.4865L646.453 88.7849C636.331 89.5753 626.613 92.9865 618.283 98.6545C605.664 107.245 590.016 110.521 574.891 107.734C559.765 104.947 546.421 96.3353 537.888 83.8449C533.493 77.4177 527.915 71.8433 521.429 67.4129L482.219 40.6017C473.163 34.4137 463.083 29.7857 452.427 26.9465C424.96 19.6145 395.573 24.5233 372.192 40.3625C357.749 50.1385 344.48 61.4745 332.64 74.1417L327.04 80.1217C309.099 99.3097 294.176 121.004 282.784 144.477C270.507 169.78 264.139 197.434 264.139 225.431C264.139 233.075 264.608 240.708 265.557 248.29L269.045 276.266C270.037 284.222 266.656 292.105 260.139 296.993C253.984 301.611 245.867 302.942 238.507 300.519L191.552 285.095C180.768 281.549 169.835 278.429 158.795 275.735L121.205 266.573C109.621 263.755 97.6321 262.891 85.7601 264.035C60.0961 266.5 36.2881 278.169 18.9441 296.785L-7.01855 324.647" stroke="#C2FAFF" stroke-width="3" stroke-miterlimit="10"/>
<path d="M-9.52539 283.743L0.341277 273.198C10.4746 262.361 22.9013 253.781 36.7466 248.061C54.4213 240.76 73.8133 238.347 92.7999 241.103L112.512 243.963C134.816 247.187 156.811 252.138 178.315 258.763L206.24 267.363C214.347 269.859 223.168 268.736 230.347 264.306C237.525 259.875 242.336 252.575 243.477 244.359C243.648 243.1 243.744 241.831 243.744 240.563V212.805C243.744 186.815 249.312 161.107 260.096 137.332C271.851 111.415 289.493 88.4521 311.701 70.1793L338.389 48.2145C339.904 46.9665 341.429 45.7289 342.965 44.5017L352.544 36.8369C384.875 10.9721 428.192 2.23612 468.395 13.4889C484.075 17.8777 498.752 25.1681 511.605 34.9545L550.571 64.6153C551.253 65.1353 551.915 65.6657 552.565 66.2065C569.333 80.2153 592.949 83.4081 612.992 74.3601C620.341 71.0425 628.139 68.7753 636.149 67.6313L679.083 61.4745C679.328 61.4433 679.573 61.4017 679.819 61.3601C702.613 57.7305 719.36 38.5321 719.36 16.0057V-8.45508" stroke="#C2FAFF" stroke-width="3" stroke-miterlimit="10"/>
<path d="M698.976 -4.49268C698.976 17.9609 683.445 37.5961 661.163 43.2849C653.259 45.3025 645.259 46.9977 637.205 48.3497L622.272 50.8561C605.728 53.6329 588.768 52.9777 572.501 48.9529C552.896 44.1065 534.869 34.4969 520.107 21.0289L492.128 -4.49268" stroke="#C2FAFF" stroke-width="3" stroke-miterlimit="10"/>
<path d="M533.664 -8.45508L550.091 8.56972C560.565 19.4273 574.379 26.6761 589.44 29.2449C597.259 30.5761 605.259 30.6073 613.088 29.3489L645.568 24.1281C659.936 21.8193 670.475 9.71372 670.475 -4.48228" stroke="#C2FAFF" stroke-width="3" stroke-miterlimit="10"/>
<path d="M377.301 -8.45508L324.96 29.6505C319.136 33.8937 313.472 38.3449 307.989 42.9937C276.384 69.7945 251.029 102.877 233.643 140.036L230.272 147.254C227.328 153.556 225.291 160.223 224.224 167.066C218.112 206.263 181.685 234.011 141.195 230.287C137.355 229.934 133.536 229.383 129.76 228.644C83.712 219.565 35.9039 225.077 -6.70939 244.369L-9.52539 245.648" stroke="#C2FAFF" stroke-width="3" stroke-miterlimit="10"/>
<path d="M-9.52539 142.407L-1.01339 153.202C20.2773 180.201 52.2773 197.163 87.0933 199.898C91.0826 200.21 95.0613 200.71 98.9973 201.406L124.032 205.785C158.24 211.765 191.68 192.015 202.08 159.682C202.709 157.726 203.435 155.792 204.245 153.899L214.837 129.147C230.016 93.6728 254.848 62.92 286.635 40.1856C294.944 34.2368 302.816 27.7264 310.176 20.6856L340.651 -8.44482" stroke="#C2FAFF" stroke-width="8" stroke-miterlimit="10"/>
<path d="M299.125 -2.11133L279.723 20.6855C271.531 30.3055 261.909 38.6879 251.189 45.5415C230.133 58.9991 213.579 78.1663 203.573 100.693L194.283 121.597C193.056 124.342 191.872 127.109 190.709 129.885L183.829 146.328C173.781 170.362 149.803 186.066 123.189 186.066C118.347 186.066 113.515 185.546 108.789 184.506C75.4986 177.195 44.5653 161.99 18.72 140.254L-7.04004 118.581" stroke="#C2FAFF" stroke-width="3" stroke-miterlimit="10"/>
<path d="M-7.05078 91.9879L18.9866 113.204C45.7066 134.981 77.5252 149.989 111.627 156.894C121.824 158.964 132.416 157.955 142.016 154.024C154.005 149.105 163.637 139.942 168.96 128.377L188.352 86.3199C196.384 68.9103 208.544 53.6015 223.84 41.6727C232.715 34.7463 240.576 26.6655 247.179 17.6383L261.653 -2.11133" stroke="#C2FAFF" stroke-width="3" stroke-miterlimit="10"/>
<path d="M230.72 -8.45508L217.024 10.7745C212.597 16.9937 207.573 22.7969 202.037 28.1113C190.059 39.6033 180.587 53.3417 174.176 68.4841L159.232 103.792C156.437 110.386 152.139 116.272 146.645 121.004C134.581 131.394 117.963 135.19 102.421 131.092C84.9173 126.485 68.256 119.215 53.0773 109.543L49.3973 107.203C33.4826 97.0633 18.2826 85.9041 3.89329 73.7985L-7.04004 64.5945" stroke="#C2FAFF" stroke-width="3" stroke-miterlimit="10"/>
<path d="M-7.05078 47.1223L22.8372 67.5791C39.2319 78.8007 56.6505 88.5247 74.8799 96.6263C92.2665 104.353 112.523 102.721 128.363 92.3207C137.739 86.1639 144.928 77.3447 148.971 67.0591C157.248 46.0199 169.44 26.6551 184.949 9.94228L207.904 -14.7993" stroke="#C2FAFF" stroke-width="3" stroke-miterlimit="10"/>
<path d="M171.264 -8.45508L168.278 -4.91908C151.339 15.1321 137.11 37.2217 125.952 60.8089C122.592 67.9017 116.982 73.7465 109.942 77.4697C98.9229 83.3041 85.6322 83.3249 74.5922 77.5321L49.9415 64.5841L-13.5571 31.2417" stroke="#C2FAFF" stroke-width="8" stroke-miterlimit="10"/>
<path d="M-7.05078 11.3878L58.4745 45.2294C60.9065 46.4878 63.4665 47.4758 66.1119 48.1934C81.3652 52.3222 97.6425 46.8414 107.029 34.4134C110.219 30.1806 113.227 25.8126 116.021 21.3198L134.603 -8.46582" stroke="#C2FAFF" stroke-width="3" stroke-miterlimit="10"/>
<path d="M100.437 -8.45508L95.0291 5.40812C89.2691 20.1657 73.1412 28.4337 57.4078 24.6897C53.5465 23.7745 49.8878 22.1625 46.6238 19.9369L17.3545 0.000121684" stroke="#C2FAFF" stroke-width="3" stroke-miterlimit="10"/>
<path d="M39.3389 -8.45508L48.0535 -2.20468C52.8855 1.25852 59.0082 2.55852 64.8855 1.37292C70.7629 0.176921 75.8402 -3.39028 78.8482 -8.45508" stroke="#C2FAFF" stroke-width="3" stroke-miterlimit="10"/>
<path d="M1295.91 274.56C1286.62 276.744 1276.82 274.56 1269.42 268.673C1262.02 262.787 1257.86 253.864 1258.18 244.556C1259.18 215.394 1266.24 186.742 1278.92 160.316L1295.91 124.935" stroke="#C2FAFF" stroke-width="3" stroke-miterlimit="10"/>
<path d="M1290.22 103.896C1285.29 109.835 1277.25 112.393 1269.67 110.427C1262.1 108.462 1256.43 102.336 1255.19 94.7961L1251.09 69.8673C1250.6 66.9137 1250.09 63.9601 1249.54 61.0065L1249.35 60.0289C1244.54 34.3513 1230.1 11.3465 1208.82 -4.49268" stroke="#C2FAFF" stroke-width="3" stroke-miterlimit="10"/>
<path d="M1249.51 -2.11133L1256.11 12.5839C1262.76 27.4039 1274.95 39.2079 1290.21 45.5831" stroke="#C2FAFF" stroke-width="3" stroke-miterlimit="10"/>
</g>
</g>
</g>
<defs>
<clipPath id="clip0_70_13459">
<rect width="1280" height="832" fill="white"/>
</clipPath>
</defs>
</svg>
