<?xml version="1.0" encoding="UTF-8"?>
<svg xmlns="http://www.w3.org/2000/svg" viewBox="0 0 96.22 145.56">
  <defs>
    <style>
      .cls-1 {
        opacity: .3;
      }

      .cls-1, .cls-2, .cls-3, .cls-4, .cls-5, .cls-6, .cls-7, .cls-8, .cls-9, .cls-10 {
        stroke-width: 0px;
      }

      .cls-1, .cls-2, .cls-4 {
        fill: #924429;
      }

      .cls-1, .cls-3, .cls-4, .cls-6, .cls-9 {
        mix-blend-mode: multiply;
      }

      .cls-3 {
        fill: #926d71;
        opacity: .26;
      }

      .cls-4 {
        opacity: .22;
      }

      .cls-5 {
        fill: #311514;
      }

      .cls-6 {
        opacity: .59;
      }

      .cls-6, .cls-10 {
        fill: #eaba94;
      }

      .cls-7, .cls-9 {
        fill: #c07652;
      }

      .cls-8 {
        fill: #dca579;
      }

      .cls-9 {
        opacity: .33;
      }

      .cls-11 {
        isolation: isolate;
      }
    </style>
  </defs>
  <g class="cls-11">
    <g id="Layer_2" data-name="Layer 2">
      <g id="Layer_1-2" data-name="Layer 1">
        <g>
          <path class="cls-3" d="M45.09,138.06c12.74-.31,46.67,2.58,50.8,3.47,4.12.89-31.34,3.85-44.67,4.02-13.33.17-55.48-3.26-50.86-4.02,6.09-1.01,30.35-3.12,44.73-3.47Z"/>
          <g>
            <path class="cls-2" d="M24.26,109.11c-.25,8.32-.62,15.6-1.04,15.92-.94.75-3.61.18-4.26-.67-.33-.43-1.77-18.91-2.57-37.45-.78-17.69-.99-35.43.85-37.67,0,0,6.77,32.82,7.22,35.15.25,1.31.13,13.9-.2,24.72Z"/>
            <path class="cls-1" d="M24.26,109.11c-3.9-7.92-6.44-16.43-7.87-22.21-.78-17.69-.99-35.43.85-37.67,0,0,6.77,32.82,7.22,35.15.25,1.31.13,13.9-.2,24.72Z"/>
            <path class="cls-2" d="M77.26,92.22c-.5,16.61-1.39,31.76-1.68,32.15-.64.85-3.31,1.44-4.26.69-.33-.25-.8-4.99-1.26-11.13h0c-.85-11.52-1.65-28.02-1.36-29.53.42-2.17,6.26-30.89,7.05-34.74.06-.28.09-.43.09-.43.1.13.2.29.29.51,1.74,4.07,1.68,24.18,1.13,42.49Z"/>
            <path class="cls-1" d="M77.26,92.22c-2.99,10.67-7.2,21.7-7.2,21.7-.85-11.51-1.65-28-1.36-29.52.42-2.17,6.26-30.89,7.05-34.74.14.03.27.05.38.08,1.74,4.07,1.68,24.18,1.13,42.49Z"/>
            <path class="cls-2" d="M39.49,121.8c-.18,3.33-.48,7.25-.85,10.77,0,0,0,.01-.01.05-.56,5.29-1.28,9.65-2.06,9.65-1.92-.01-5.85-29.87-5.33-30.26.95-.71,7.67,1.12,8.3,2.11.22.33.17,3.54-.05,7.67Z"/>
            <path class="cls-4" d="M35.41,121.78c-.39.23.08,14.38.95,15.18.83.74,2.11-3.8,2.26-4.34-.56,5.29-1.28,9.65-2.06,9.65-1.92-.01-5.85-29.87-5.33-30.26.95-.71,7.67,1.12,8.3,2.11.22.33.17,3.54-.05,7.67-1.34-.08-3.79-.2-4.08-.03Z"/>
            <path class="cls-2" d="M59.36,142.27c-.75.25-1.41-3-1.92-7.39,0,0-.01,0,0-.01-.45-3.69-.78-8.18-.97-12.03-.24-4.6-.28-8.29-.05-8.65.64-1.02,7.34-2.89,8.3-2.16.52.39-3.23,29.52-5.37,30.24Z"/>
            <path class="cls-4" d="M59.36,142.27c-.75.25-1.41-3-1.92-7.39.44,1.37,1.04,2.66,1.67,2.48,1.27-.36,1.42-14.23,1.03-14.47-.25-.15-2.29-.11-3.66-.05-.24-4.6-.28-8.29-.05-8.65.64-1.02,7.34-2.89,8.3-2.16.52.39-3.23,29.52-5.37,30.24Z"/>
            <g>
              <path class="cls-10" d="M42.24,11.63v.05l-.23.04-4.82.79s-.22-2.58-1.22-4.79c-.19-.42-.42-.83-.67-1.21-.34-.52-.75-.97-1.23-1.3-.13-.09-.27-.17-.39-.23-.45-.23-.88-.31-1.28-.25-.53.06-1.02.33-1.44.74-.31.28-.57.62-.79,1-.24.39-.42.83-.55,1.26-.14.45-.2.88-.2,1.28,0,.1,0,.2.01.29.18,1.84-1.76,2.76-2.26-.64-.06-.43-.11-.94-.11-1.53-.01-.24-.01-.51-.01-.78.03-1.14.31-2.12.76-2.94.25-.46.56-.86.92-1.23.13-.13.25-.24.39-.34.01-.01.01-.03.01-.03,1.14-.94,2.62-1.45,4.11-1.51h.01c.47-.03.93,0,1.4.06,1.21.17,2.37.62,3.31,1.36.57.45,1.08.99,1.49,1.6.27.34.5.71.7,1.08.69,1.26,1.17,2.63,1.49,3.84.45,1.7.6,3.09.62,3.37Z"/>
              <path class="cls-7" d="M40.13,4.42c-.89.29-2.63,1.08-4.16,3.29-.19-.42-.42-.83-.67-1.21,1.45-1.92,3.08-2.79,4.13-3.17.27.34.5.71.7,1.08Z"/>
              <path class="cls-7" d="M33.67,4.98c-.45-.23-.88-.31-1.28-.25-.1-1.92.41-3.45.84-4.41h.01c.47-.03.93,0,1.4.06-.41.74-1.14,2.42-.97,4.6Z"/>
              <path class="cls-7" d="M30.94,5.46c-.31.28-.57.62-.79,1-1.3-.95-2-2.16-2.37-3.04.25-.46.56-.86.92-1.23.13.53.65,2.12,2.24,3.27Z"/>
              <path class="cls-7" d="M29.61,7.73c-.14.45-.2.88-.2,1.28-.1.01-.18.01-.27.01-.88,0-1.51-.15-1.98-.36-.06-.43-.11-.94-.11-1.53l.09-.04s.42.76,2.48.62Z"/>
              <path class="cls-6" d="M42.24,11.63l-.23.09-4.82.79s-.22-2.58-1.22-4.79c-.19-.42-.42-.83-.67-1.21-.34-.52-.75-.97-1.23-1.3-.13-.09-.27-.17-.39-.23-.45-.23-.88-.31-1.28-.25-.53.06-1.02.33-1.44.74-.31.28-.57.62-.79,1-.24.39-.42.83-.55,1.26-.14.45-.2.88-.2,1.28,0,.1,0,.2.01.29.18,1.84-1.76,2.76-2.26-.64-.06-.43-.11-.94-.11-1.53-.01-.24-.01-.51-.01-.78.03-1.14.31-2.12.76-2.94.25-.46.56-.86.92-1.23.13-.13.25-.24.39-.34-.15.33-1.54,3.45-1.07,5.62.74-.28,1.36-4.26,5.99-4.1,3.5.13,5,5.18,5,5.18l2.59-.29c.45,1.7.6,3.09.62,3.37Z"/>
            </g>
            <g>
              <path class="cls-10" d="M66.34,9.39c-.18,1.54-1,1.22-1.48.17-.06-.19-.14-.39-.19-.6-.06-.27-.13-.52-.22-.78-.19-.61-.43-1.21-.74-1.74-.2-.39-.45-.75-.7-1.06h-.01c-.39-.47-.81-.8-1.3-.97-.42-.17-.84-.19-1.3-.06-.45.11-.94.37-1.45.81-.04.03-.08.06-.11.11-.31.27-.59.61-.8.98-1.56,2.47-1.6,6.44-1.6,6.44l-3.9-.32-1.2-.09s0-.24.04-.66c.05-.78.18-2.16.55-3.7.25-1.12.64-2.33,1.18-3.43.19-.43.43-.83.67-1.22.31-.45.65-.86,1.02-1.25C56.29.55,58.07-.07,59.79,0c.52.03,1.03.1,1.53.25.29.09.57.19.84.32,1.06.47,2,1.23,2.7,2.25.32.46.6.97.81,1.53.17.43.29.89.38,1.39.19.93.27,1.69.32,2.33.03.53.01.98-.03,1.32Z"/>
              <path class="cls-7" d="M58.85,5.28c-.31.27-.59.61-.81.99-1.68-1.46-3.62-1.77-4.93-1.77.19-.42.43-.83.68-1.22,1.46.12,3.38.59,5.07,2Z"/>
              <path class="cls-7" d="M61.7,4.42c-.41-.16-.83-.19-1.29-.06.43-1.89-.09-3.41-.62-4.35.51.02,1.03.11,1.53.26.42,1.08.72,2.49.38,4.15Z"/>
              <path class="cls-7" d="M65.67,4.36c-.38.8-1,1.6-1.94,2.09-.21-.39-.45-.75-.7-1.06,1.27-.58,1.69-1.93,1.83-2.55.32.46.59.97.82,1.53Z"/>
              <path class="cls-7" d="M66.36,8.06c.03.55.02.98-.02,1.33-.25.08-.52.13-.82.16-.22.02-.43.02-.66,0-.07-.19-.13-.38-.19-.6-.06-.26-.13-.51-.22-.77.74.21,1.42.07,1.9-.12Z"/>
              <path class="cls-6" d="M66.34,9.39c-.18,1.54-1,1.22-1.48.17-.06-.19-.14-.39-.19-.6-.06-.27-.13-.52-.22-.78-.19-.61-.43-1.21-.74-1.74-.2-.39-.45-.75-.7-1.06h-.01c-.39-.47-.81-.8-1.3-.97-.42-.17-.84-.19-1.3-.06-.45.11-.94.37-1.45.81-.04.03-.08.06-.11.11-.31.27-.59.61-.8.98-1.56,2.47-1.6,6.44-1.6,6.44l-3.9-.32-1.16-.75c.05-.78.18-2.16.55-3.7l2.19.89s.39-5.46,5.24-5.82c4.86-.37,5.4,3.76,5.77,3.27-.38-3.28-2.98-5.68-2.98-5.68,1.06.47,2,1.23,2.7,2.25.32.46.6.97.81,1.53.17.43.29.89.38,1.39.19.93.27,1.69.32,2.33.03.53.01.98-.03,1.32Z"/>
            </g>
            <path class="cls-2" d="M28.04,15.88l-3.1,9.89-1.36,4.34s-2.2.03-4.53-.52c-2.34-.55-4.79-1.69-5.27-4.02,9.3-1.58,13.98-9.22,14.26-9.69Z"/>
            <path class="cls-8" d="M24.93,25.77l-1.36,4.34s-2.2.03-4.53-.52c-.5-.92-1.04-2.1-.81-2.61.39-.86,5.72-3.6,5.72-3.6l.98,2.39Z"/>
            <path class="cls-2" d="M75.04,30.2c-2.72.6-5.56.73-5.56.73l-2.01-6.19-2.87-8.9c.38.48,6.61,8.25,13.94,8.93,3.37,3.09.04,4.65-3.5,5.44Z"/>
            <path class="cls-8" d="M75.04,30.2c-2.72.6-5.56.73-5.56.73l-2.01-6.19.08-.97s6.68,2.95,7.78,3.82c.72.57.18,1.82-.29,2.62Z"/>
            <path class="cls-7" d="M77.19,66.44c-.05,1.41-.11,2.86-.22,4.34-.34,5.13-1,10.59-2.1,16.42-.05.31-.1.61-.18.92-1.6,8.36-4.08,17.41-7.67,27.16-15.34,4.54-33.59,1.97-37.42-.13-4.96-9.08-7.97-18.12-9.91-26.86-.1-.39-.19-.8-.27-1.2-1.16-5.42-1.91-10.73-2.47-15.88-.19-1.7-.33-3.4-.43-5.05-.17-2.34-.24-4.62-.24-6.85,0-.6,0-1.2.01-1.78.01-1.32.04-2.62.11-3.9.86-18.75,6.7-32.91,11.62-37.77,5.75-8.32,22.4-8.28,31.59-4.43h.01c2.03.85,3.71,1.91,4.82,3.09.38.41,10.31,13.57,12.4,39.09.11,1.37.22,2.77.27,4.22.11,2.73.14,5.61.05,8.61Z"/>
            <path class="cls-10" d="M61.03,29.46c0,7.21-6.67,13.05-14.89,13.05s-14.89-5.84-14.89-13.05,6.67-13.05,14.89-13.05,14.89,5.84,14.89,13.05Z"/>
            <path class="cls-5" d="M53.12,29.35c-.18,1.71-1.34,2.99-2.58,2.85-1.24-.13-2.1-1.63-1.92-3.33.18-1.71,1.34-2.99,2.58-2.85,1.24.13,2.1,1.63,1.92,3.33Z"/>
            <path class="cls-5" d="M43.96,28.91c.15,1.71-.74,3.19-1.98,3.3-1.24.11-2.37-1.19-2.53-2.9-.15-1.71.74-3.19,1.98-3.3,1.24-.11,2.37,1.19,2.53,2.9Z"/>
            <path class="cls-10" d="M77.14,57.83c-4.6,1.4-9.3,2.35-14.03,2.94-5.41.64-10.86.89-16.3.78-5.43-.15-10.84-.53-16.21-1.3-4.81-.67-9.56-1.5-14.3-2.72.01-1.32.05-2.62.12-3.9,2.21.32,4.48.64,6.74.86,2.63.33,5.26.6,7.91.81,5.27.43,10.56.74,15.84.83,5.27.11,10.53-.11,15.77-.47,2.61-.25,5.24-.47,7.81-.93,2.17-.22,4.26-.71,6.39-1.12.12,1.37.21,2.77.27,4.22Z"/>
            <path class="cls-10" d="M77.19,66.44c-.05,1.41-.12,2.86-.21,4.34-1.66.43-3.32.83-4.98,1.21-2.7.58-5.4,1.11-8.12,1.56-5.43.92-10.91,1.54-16.43,1.86-5.51.24-11.07.23-16.63-.5-4.68-.61-9.38-1.67-13.86-3.7-.19-1.7-.33-3.4-.43-5.05,2.22,1.08,4.59,1.87,7.02,2.45,2.54.64,5.12,1.09,7.75,1.35,5.25.56,10.58.62,15.93.34,5.34-.25,10.69-.8,16.02-1.54,2.68-.37,5.33-.78,7.99-1.25,1.98-.33,3.98-.69,5.94-1.08Z"/>
            <path class="cls-10" d="M75.61,130.59c-.38,1.63-1.75,2.65-3.06,2.29s-2.06-1.99-1.67-3.62,1.75-2.65,3.06-2.29c1.31.37,2.06,1.99,1.67,3.62Z"/>
            <path class="cls-10" d="M24.21,129.27c.4,1.63-.33,3.25-1.64,3.64-1.3.38-2.69-.63-3.09-2.25-.4-1.63.33-3.25,1.64-3.64s2.69.63,3.09,2.25Z"/>
            <path class="cls-10" d="M74.87,87.2c-.05.31-.1.61-.18.92l-4.3-4.15-5.01,5.23-.31.32-.37-.29-5.23-4.3-4.68,4.77-.48.5-.47-.5-4.57-4.83-5.7,5.38-.56.53-.53-.53-5.74-5.72-5.53,5.48-.31.29-.33-.24-7.64-5.56-3.24,3.8c-.1-.39-.19-.8-.27-1.2l2.93-3.88.37-.5.51.39,7.59,5.89,5.47-5.82.43-.46.47.45,5.82,5.4,5.68-5.58.67-.65.59.7,4.35,5.23,4.39-5.29.66-.8.7.75,4.96,5.25,4.88-5.54.47-.53.46.52,4.03,4.58Z"/>
            <path class="cls-9" d="M77.19,66.44c-.05,1.41-.11,2.86-.22,4.34-.83,12.7-3.71,27.56-9.95,44.5-15.34,4.54-33.59,1.97-37.42-.13-8.28-15.15-11.13-30.17-12.64-43.94-.19-1.7-.33-3.4-.43-5.05-.17-2.34-.24-4.62-.24-6.85,3.84,20.55,12.18,34.44,14.89,37.75,3.31,4.03,33.53,7.34,36.69-16.95,3.98-30.62-5.24-67-8.23-68.68,2.03.85,3.71,1.91,4.82,3.09.38.41,10.31,13.57,12.4,39.09.11,1.37.22,2.77.27,4.22.11,2.73.14,5.61.05,8.61Z"/>
          </g>
        </g>
      </g>
    </g>
  </g>
</svg>