<?xml version="1.0" encoding="UTF-8"?>
<svg xmlns="http://www.w3.org/2000/svg" viewBox="0 0 132.01 140.11">
  <defs>
    <style>
      .cls-1 {
        fill: #8c9bb2;
        opacity: .28;
      }

      .cls-1, .cls-2, .cls-3, .cls-4, .cls-5, .cls-6, .cls-7, .cls-8, .cls-9, .cls-10, .cls-11, .cls-12, .cls-13, .cls-14, .cls-15, .cls-16, .cls-17, .cls-18 {
        stroke-width: 0px;
      }

      .cls-1, .cls-4, .cls-7, .cls-11, .cls-14, .cls-16 {
        mix-blend-mode: multiply;
      }

      .cls-2, .cls-14 {
        fill: #975045;
      }

      .cls-3 {
        fill: #235a81;
      }

      .cls-4 {
        opacity: .6;
      }

      .cls-4, .cls-8, .cls-16, .cls-18 {
        fill: #5fa3be;
      }

      .cls-5 {
        fill: #5697b1;
      }

      .cls-6 {
        fill: #9ec0d5;
      }

      .cls-7 {
        opacity: .45;
      }

      .cls-7, .cls-13 {
        fill: #823730;
      }

      .cls-9 {
        fill: #c0def0;
      }

      .cls-10 {
        fill: #b0d6ea;
      }

      .cls-11 {
        fill: #5ea2bc;
        opacity: .74;
      }

      .cls-12 {
        fill: #122232;
      }

      .cls-14 {
        opacity: .37;
      }

      .cls-19 {
        isolation: isolate;
      }

      .cls-15 {
        fill: #1b3849;
      }

      .cls-16 {
        opacity: .4;
      }

      .cls-17 {
        fill: #4a171b;
      }

      .cls-18 {
        opacity: .75;
      }
    </style>
  </defs>
  <g class="cls-19">
    <g id="Layer_2" data-name="Layer 2">
      <g id="Layer_1-2" data-name="Layer 1">
        <g>
          <path class="cls-1" d="M71.44,130.76c17.48-.38,54.49,3.22,60.15,4.33,5.66,1.11-48.06,4.8-66.35,5.02-18.29.22-71.07-4.07-64.72-5.02,8.35-1.26,51.18-3.9,70.92-4.33Z"/>
          <g>
            <path class="cls-6" d="M19.79,101.01s-2.61,3.47-2.52,3.85c.08.37,1.65,2.03,2.03,2.11s1.94-.84,1.94-.84c0,0,.37,1.88.62,2.04.25.17,2.98.95,3.27.91.29-.04,1.94-1.41,1.94-1.41,0,0-.04,2.03.29,2.11.33.08,2.27.58,2.81.45.54-.12,2.12-1.57,2.12-1.57l-.47-3.27-12.03-4.38Z"/>
            <path class="cls-6" d="M107.64,101.19s2.65,3.86,2.81,4.36c.17.5-1.82,2.32-2.15,2.37-.33.06-2.48-.78-2.48-.78,0,0,.39,1.66,0,1.99-.39.33-2.21,1.1-2.92,1.16s-2.21-1.49-2.21-1.49c0,0-.39,1.98-.88,2.26-.5.28-2.2,0-2.2,0l-.88-2.43.62-4.04,10.3-3.41Z"/>
            <path class="cls-5" d="M36.31,71.23c-.38,16.06-2.61,34.6-2.61,34.6,0,0-11.51,2.1-15.02-5.12.34-.48.69-.99,1.03-1.53,8.92-14.22,14.56-49.47,14.56-49.47,1.87,3.48,2.28,12.08,2.04,21.53Z"/>
            <path class="cls-11" d="M36.31,71.23c-.38,16.06-2.61,34.6-2.61,34.6,0,0-11.51,2.1-15.02-5.12.34-.48.69-.99,1.03-1.53,1.35,1.14,3.81,2.88,6.15,2.75,4.3-7.13,7.46-32.33,7.46-32.33l2.98,1.63Z"/>
            <path class="cls-5" d="M109.31,100.46c-3.88,8.1-13.68,6.55-13.68,6.55,0,0-3.74-24.12-4.82-41.15-.36-5.57-.44-10.39.01-13.35,4.5,16.95,11.35,33.7,16.04,43.26.9,1.85,1.73,3.44,2.45,4.7Z"/>
            <path class="cls-11" d="M109.31,100.46c-3.88,8.1-13.68,6.55-13.68,6.55,0,0-3.74-24.12-4.82-41.15,1.18.07,2.01.13,2.01.13,0,0,3.55,30.14,10.39,37.84,2.49-1.91,3.36-5.89,3.65-8.07.9,1.85,1.73,3.44,2.45,4.7Z"/>
            <path class="cls-2" d="M37.19,32.21l-.05,5.36s-22.4-2.74-22.83-3.84c-.33-.82-.15-1.98.29-2.71.13-.23.3-.41.48-.53.45-.29,8.34.38,14.57.98,4.14.38,7.54.74,7.54.74Z"/>
            <path class="cls-14" d="M37.19,32.21l-.05,5.36s-22.4-2.74-22.83-3.84c-.33-.82-.15-1.98.29-2.71.04.41.24.91.91,1.18,1.2.49,13.44,1.72,14,1.79.36.05.25-1.44.13-2.51,4.14.38,7.54.74,7.54.74Z"/>
            <path class="cls-2" d="M106.51,34.99c-.6.93-21.26,2.39-21.26,2.39l.05-5.23s4.18-.33,8.84-.64c5.65-.37,12.01-.67,12.41-.26.24.25.38.65.44,1.1.13.9-.08,2.01-.48,2.63Z"/>
            <path class="cls-14" d="M106.51,34.99c-.6.93-21.26,2.39-21.26,2.39l.05-5.23s4.18-.33,8.84-.64c.04.81.21,2.42.87,2.7.89.36,9.59-.33,10.48-.7.46-.2,1.05-.71,1.5-1.16.13.9-.08,2.01-.48,2.63Z"/>
            <path class="cls-6" d="M44.12,130.41c-.99,2.59-1.79,4.78-2.64,5.13-1.17.49-15.5,1.7-19.66-.69.74-2.48,1.49-5.27,2.32-7.42,15.39-.14,19.98,2.98,19.98,2.98Z"/>
            <path class="cls-6" d="M107.14,133.69c-2.55,3.82-19.95,1.64-21.1.96-.61-.35-1.48-2.73-2.16-4.93,0,0,9.49-2.31,20.67-1.26.8,1.91,1.68,3.66,2.59,5.23Z"/>
            <path class="cls-8" d="M104.55,128.46c-11.08-.95-20.67,1.26-20.67,1.26-.64-2.05-1.12-3.98-1.12-3.98,0,0-18.56-2.47-36.82.13-.73,1.15-1.31,3.55-1.81,4.54,0,0-4.59-3.11-19.98-2.98,5.7-14.58,8.2-32.99,8.96-50.07.34-7.69.33-15.1.09-21.79-.09-2.78-.91-21.05-1.61-25.47,13.85-8.88,29.47-10.25,42-7.85,6.52,1.24,12.21,3.52,16.37,6.3.46.32.77,7.83,1.47,18.78.17,2.43.36,5.04.54,7.79,1.68,22.98,4.96,55.26,12.6,73.35Z"/>
            <path class="cls-18" d="M104.79,26.68c-.81-.2-1.6-.43-2.39-.71-.39-.14-.78-.29-1.17-.49-.19-.1-.38-.2-.56-.36-.09-.06-.18-.18-.26-.29-.07-.15-.09-.36-.05-.45.22-.89.61-1.59.97-2.35.37-.74.76-1.47,1.16-2.2l.27.47h0l-5.78-.14h-.38s.18-.34.18-.34h0c.31-.79.58-1.65.56-2.44.02-.83-.46-1.31-1.28-1.48-.79-.19-1.68-.16-2.54-.13-.87.05-1.75.14-2.61.27h0s-.33.07-.33.07l.05-.34c.12-.76.13-1.56.08-2.32-.06-.76-.27-1.52-.71-2.03-.43-.53-1.14-.69-1.87-.58l-.27.03c-.08.02-.41.02-.55-.1-.3-.22-.38-.46-.47-.66-.16-.42-.24-.82-.32-1.23l-.38-2.38c-.07-.39-.14-.78-.24-1.14-.07-.34-.32-.78-.35-.72-.6.07-1.44.42-2.15.68-.74.29-1.48.6-2.2.93h0s-.31.16-.31.16l-.02-.35c-.09-1.27-.24-2.56-.6-3.75-.17-.55-.48-1.24-.82-1.28-.39-.06-.98.28-1.47.63-1.04.71-1.9,1.64-3.17,2.35-.15.09-.38.16-.65.18-.23-.02-.47-.06-.65-.14-.38-.16-.66-.37-.93-.58-.53-.43-1-.88-1.47-1.29-.91-.81-2.08-1.54-2.76-.86-.8.72-1.43,1.98-2.26,3-1.59,2.19-4.22,3.7-7.01,3.79-1.41.04-2.8-.42-3.97-1.11-1.18-.68-2.18-1.56-3.17-2.35-.98-.78-2.06-1.49-2.95-1.03-.91.44-1.49,1.66-1.96,2.8-.48,1.17-.85,2.42-1.39,3.64-.26.61-.6,1.22-1.05,1.77-.46.56-1.26.97-2.02.9-1.51-.08-2.62-1.11-3.47-2.08-.86-1.02-1.53-2.15-2.09-3.35h0s.44-.12.44-.12c.08,1.86-.07,3.75-.84,5.5-.39.86-1.01,1.67-1.89,2.13-.87.45-1.86.59-2.81.5-.95-.09-1.85-.41-2.71-.74-.43-.16-.85-.34-1.27-.46-.41-.11-.85-.17-1.01.07-.18.22-.17.69-.11,1.11.07.43.18.87.29,1.31.2.89.54,1.76.44,2.81-.03.26-.15.55-.39.78-.13.08-.27.16-.41.21l-.4.06c-.5,0-.97-.05-1.43-.14-.92-.17-1.8-.4-2.69-.61-.89-.21-1.78-.42-2.66-.51-.86-.08-1.88-.07-1.94.83-.13.83.09,1.74.3,2.62l.71,2.66c.1.45.21.91.21,1.4,0,.24-.05.56-.26.76-.18.22-.45.33-.69.38-1,.17-1.91-.14-2.78-.46-.09-.03-.14-.13-.1-.22.03-.09.13-.14.22-.1h.01c.82.3,1.75.58,2.57.42.95-.13.61-1.24.42-2.08l-.73-2.65c-.22-.9-.47-1.81-.33-2.8,0-.12.05-.25.1-.37.03-.13.09-.25.2-.36.17-.25.45-.35.69-.43.5-.15.98-.1,1.45-.08.94.08,1.84.29,2.74.49.9.2,1.78.42,2.67.57.83.11,1.97.35,1.98-.46.09-.79-.22-1.71-.42-2.59-.11-.45-.22-.9-.29-1.37-.04-.46-.15-1,.24-1.54.2-.24.53-.36.8-.35.28,0,.52.06.75.12.47.13.88.32,1.31.48.85.33,1.7.63,2.57.72.87.09,1.76-.04,2.52-.43.76-.39,1.31-1.1,1.68-1.9.72-1.61.89-3.48.82-5.26l-.04-1.11.48.99h0c.57,1.13,1.28,2.22,2.13,3.14.84.9,1.9,1.73,3.04,1.72.54,0,.99-.23,1.37-.67.35-.46.64-1,.88-1.58.48-1.16.83-2.41,1.3-3.64.23-.62.5-1.24.85-1.84.38-.58.81-1.21,1.56-1.55.73-.36,1.63-.29,2.3.02.68.3,1.21.71,1.75,1.11,1.03.81,1.99,1.64,3.06,2.24,1.06.61,2.22.98,3.41.94,2.4-.11,4.72-1.33,6.19-3.33.82-.96,1.32-2.11,2.44-3.15.14-.13.35-.23.52-.33.21-.06.44-.15.64-.15.42-.02.84.06,1.18.22.7.3,1.22.76,1.72,1.19.49.44.95.91,1.42,1.3.49.39.92.71,1.25.47,1.02-.53,2-1.48,3.1-2.2.57-.33,1.15-.8,2.08-.67.5.12.73.52.9.82.18.32.27.65.36.98.33,1.31.42,2.6.45,3.92l-.33-.2h0c.72-.37,1.44-.72,2.18-1.04.37-.17.75-.32,1.13-.45.41-.13.72-.28,1.28-.32.44.05.58.36.69.55.11.21.17.41.24.62.12.41.2.81.27,1.21l.41,2.36c.08.38.17.77.3,1.09.06.16.16.3.19.31.03,0-.09,0,.03,0l.33-.03c.84-.12,1.88.1,2.48.86.59.73.75,1.62.79,2.44.03.84-.06,1.65-.24,2.46l-.27-.27h0c.88-.23,1.76-.41,2.66-.49.9-.09,1.82-.13,2.77.07.46.11.99.28,1.36.73.37.44.48,1,.47,1.49-.04,1-.42,1.85-.89,2.65h0s-.2-.33-.2-.33l5.78-.02h.54s-.27.47-.27.47c-.42.7-.82,1.42-1.21,2.14-.37.71-.79,1.47-.99,2.18-.12.18.3.45.62.63.34.19.72.35,1.1.5.76.3,1.54.54,2.33.77.09.02.14.11.12.2-.02.09-.11.14-.2.12Z"/>
            <path class="cls-9" d="M71.4,27.3c.76.17,1.66,7.13.91,8.58s-21.4,1.75-22.37,1.13c-.97-.62-.63-8.22,0-9.05.62-.83,18.23-1.36,21.47-.66Z"/>
            <path class="cls-12" d="M68.08,32.14c0,.76-.62,1.38-1.38,1.38-.76,0-1.38-.62-1.38-1.38,0-.76.62-1.38,1.38-1.38.76,0,1.38.62,1.38,1.38Z"/>
            <path class="cls-12" d="M57.53,32.15c0,.76-.62,1.38-1.38,1.38-.76,0-1.38-.62-1.38-1.38,0-.76.62-1.38,1.38-1.38.76,0,1.38.62,1.38,1.38Z"/>
            <path class="cls-16" d="M104.55,128.46c-11.08-.95-20.67,1.26-20.67,1.26-.64-2.05-1.12-3.98-1.12-3.98,0,0-18.56-2.47-36.82.13-.73,1.15-1.31,3.55-1.81,4.54,0,0-4.59-3.11-19.98-2.98,5.7-14.58,8.2-32.99,8.96-50.07,2.39,16.32,8.76,39.09,10.31,39.71,1.65.66,39.59-4.19,40.5-7.07.91-2.86,3.06-79.5,2.06-80.4-.97-.86-11.7-6.96-12.37-7.34,6.51,1.23,12.19,3.51,16.34,6.29.46.32.77,7.83,1.47,18.78.17,2.43.36,5.04.54,7.79,1.68,22.98,4.96,55.26,12.6,73.35Z"/>
            <path class="cls-10" d="M43.42,83.37c-.62.22,18.56,29.21,20.38,29.53,1.82.32,19.64-27.99,19.16-29.59-.48-1.6-36.05-1.2-39.53.06Z"/>
            <path class="cls-4" d="M34.43,57.74s17.8,13.81,32.02,24.81c14.23,11,31.89,30.59,31.89,30.59l-6.47-11.96-11.42-11.36-22.38-16.98-17.2-11.69-6.44-3.42Z"/>
            <path class="cls-4" d="M91.88,57.37s-23.66,18.57-35.35,29.81c-11.69,11.25-27.85,27.19-27.85,27.19l6.73-11.09,14.59-15.79s30.46-26,30.91-26.11c.44-.11,10.98-4.01,10.98-4.01Z"/>
            <path class="cls-13" d="M100.46,116.08c-9.39-13.5-22.83-26-35.26-36.06-.87-.7-1.73-1.39-2.59-2.08-15.96-12.58-29.63-20.85-29.97-21.56-.64-1.28-.33-6.39.54-5.82,13.85,8.96,24.9,17.03,33.66,24.04.74.58,1.44,1.16,2.14,1.73,22.12,18.05,28.69,28.75,29.12,29.4.73,1.09,4.04,9.9,2.36,10.33Z"/>
            <path class="cls-15" d="M69.96,24.18c.44-.01,1.5-4.57,1.11-5.19s-7.69-1.52-8.08-.74c-.39.78-.23,5.23.07,5.38s5.8.59,6.9.55Z"/>
            <path class="cls-15" d="M59.63,23.93c.48.16-.04,4.8-.19,5.04-.15.24-7.09.07-7.33-.11-.25-.19-.81-4.88-.46-5.1.35-.22,7.44,0,7.98.18Z"/>
            <path class="cls-17" d="M102.84,30.39c-.16.04.58,5.7.85,5.77.28.07,3.12-.44,3.54-.76.41-.32.97-4.02-.12-4.6-1.09-.58-3.95-.48-4.27-.42Z"/>
            <path class="cls-17" d="M18.65,29.78c.16.05-.98,5.6-1.26,5.65-.28.05-3.06-.66-3.44-1-.39-.35-.67-4.04.44-4.54,1.11-.49,3.94-.2,4.25-.11Z"/>
            <path class="cls-11" d="M88.17,125.34c0,.11-1.32.99-5.41.4,0,0-18.56-2.47-36.82.13,0,0-7.71-.65-7.38-1.31s10.48-3.74,25.8-3.64c15.31.12,23.82,4.3,23.82,4.42Z"/>
            <g>
              <path class="cls-17" d="M36.37,55.18c0,.62-.44,1.12-.97,1.12s-.97-.5-.97-1.12.44-1.12.97-1.12.97.5.97,1.12Z"/>
              <path class="cls-17" d="M47.13,61.9c.2.58-.1,1.22-.69,1.42-.58.2-1.22-.1-1.42-.69-.2-.58.1-1.22.69-1.42.58-.2,1.22.1,1.42.69Z"/>
              <path class="cls-17" d="M58.11,69.86c.2.58-.1,1.22-.69,1.42-.58.2-1.22-.1-1.42-.69-.2-.58.1-1.22.69-1.42.58-.2,1.22.1,1.42.69Z"/>
              <path class="cls-17" d="M69.81,78.97c.2.58-.1,1.22-.69,1.42-.58.2-1.22-.1-1.42-.69-.2-.58.1-1.22.69-1.42.58-.2,1.22.1,1.42.69Z"/>
              <path class="cls-17" d="M80.31,87.95c.2.58-.1,1.22-.69,1.42-.58.2-1.22-.1-1.42-.69-.2-.58.1-1.22.69-1.42.58-.2,1.22.1,1.42.69Z"/>
              <path class="cls-17" d="M90.45,98.34c.2.58-.1,1.22-.69,1.42-.58.2-1.22-.1-1.42-.69-.2-.58.1-1.22.69-1.42.58-.2,1.22.1,1.42.69Z"/>
              <path class="cls-17" d="M98.96,109.48c.14.6-.02,1.15-.36,1.23-.34.08-.73-.34-.87-.94-.14-.6.02-1.15.36-1.23.34-.08.73.34.87.94Z"/>
            </g>
            <path class="cls-7" d="M68.98,76.34l-3.78,3.68c-.87-.7-1.73-1.39-2.59-2.08l1.75-1.61,2.49-1.72c.74.58,1.44,1.16,2.14,1.73Z"/>
            <g>
              <path class="cls-13" d="M91.86,51.16c.87-.55,1.06,4.57.42,5.84-.64,1.27-41.98,26.82-64.31,58.35-1.19-1.64.9-7.04,1.84-8.44.57-.84,11.2-23.46,62.04-55.75Z"/>
              <path class="cls-17" d="M89.51,56.72c0,.62-.44,1.12-.97,1.12s-.97-.5-.97-1.12.44-1.12.97-1.12.97.5.97,1.12Z"/>
              <path class="cls-17" d="M78.86,63.67c.2.58-.1,1.22-.69,1.42-.58.2-1.22-.1-1.42-.69-.2-.58.1-1.22.69-1.42s1.22.1,1.42.69Z"/>
              <path class="cls-17" d="M69.38,70.97c.2.58-.1,1.22-.69,1.42-.58.2-1.22-.1-1.42-.69-.2-.58.1-1.22.69-1.42.58-.2,1.22.1,1.42.69Z"/>
              <path class="cls-17" d="M59.71,78.66c.2.58-.1,1.22-.69,1.42-.58.2-1.22-.1-1.42-.69-.2-.58.1-1.22.69-1.42.58-.2,1.22.1,1.42.69Z"/>
              <path class="cls-17" d="M49.99,87.49c.2.58-.1,1.22-.69,1.42-.58.2-1.22-.1-1.42-.69s.1-1.22.69-1.42c.58-.2,1.22.1,1.42.69Z"/>
              <path class="cls-17" d="M40.49,96.94c.2.58-.1,1.22-.69,1.42-.58.2-1.22-.1-1.42-.69-.2-.58.1-1.22.69-1.42.58-.2,1.22.1,1.42.69Z"/>
              <path class="cls-17" d="M32.25,107.17c-.15.6-.59,1-.99.9-.4-.1-.6-.66-.45-1.26.15-.6.59-1,.99-.9.4.1.6.66.45,1.26Z"/>
            </g>
            <path class="cls-3" d="M72.07,39.36c-.11,0-.2-.09-.21-.2,0-.11.08-.21.2-.22,1.06-.07,1.89-.44,2.46-1.12,1.11-1.32.91-3.36.91-3.38-.01-.11.07-.22.18-.23.14-.01.22.07.23.19.01.09.22,2.23-1.01,3.69-.65.77-1.57,1.19-2.75,1.27,0,0,0,0-.01,0Z"/>
          </g>
        </g>
      </g>
    </g>
  </g>
</svg>