<?xml version="1.0" encoding="UTF-8"?>
<svg xmlns="http://www.w3.org/2000/svg" xmlns:xlink="http://www.w3.org/1999/xlink" viewBox="0 0 126.29 135.47">
  <defs>
    <style>
      .cls-1, .cls-2 {
        opacity: .4;
      }

      .cls-1, .cls-2, .cls-3, .cls-4, .cls-5, .cls-6, .cls-7, .cls-8, .cls-9, .cls-10, .cls-11, .cls-12, .cls-13 {
        stroke-width: 0px;
      }

      .cls-1, .cls-2, .cls-4 {
        mix-blend-mode: multiply;
      }

      .cls-1, .cls-4, .cls-7 {
        fill: #935391;
      }

      .cls-2, .cls-9, .cls-12 {
        fill: #cd94bb;
      }

      .cls-3 {
        fill: #7f407c;
      }

      .cls-4 {
        opacity: .45;
      }

      .cls-5 {
        fill: url(#linear-gradient);
      }

      .cls-6 {
        fill: #632b61;
      }

      .cls-8 {
        fill: #fff6e3;
      }

      .cls-10 {
        fill: #3e1525;
      }

      .cls-14 {
        opacity: .5;
      }

      .cls-11 {
        fill: url(#linear-gradient-2);
      }

      .cls-15 {
        isolation: isolate;
      }

      .cls-12 {
        opacity: .6;
      }

      .cls-13 {
        fill: #dac0cf;
      }
    </style>
    <linearGradient id="linear-gradient" x1="25.43" y1="67.7" x2="25.43" y2="106.02" gradientUnits="userSpaceOnUse">
      <stop offset="0" stop-color="#935391"/>
      <stop offset="1" stop-color="#783d73"/>
    </linearGradient>
    <linearGradient id="linear-gradient-2" x1="97.2" y1="67.7" x2="97.2" y2="106.02" xlink:href="#linear-gradient"/>
  </defs>
  <g class="cls-15">
    <g id="Layer_2" data-name="Layer 2">
      <g id="Layer_1-2" data-name="Layer 1">
        <g>
          <path class="cls-13" d="M.67,131.66c-6.76,1.29,39.62,3.82,60.35,3.82s67.42-2.31,65.19-3.83c-2.23-1.53-54.14-3.85-67.72-3.85s-49.55,2.28-57.82,3.87Z"/>
          <g>
            <path class="cls-6" d="M33.07,39.38s-.22.97-.61,2.48c-.83,3.13-2.44,8.57-4.48,12.38h-.01c-1.21,2.29-2.58,3.97-4.05,4.24-5.1.95-3.64-19.63,1.72-21.7l7.43,2.61Z"/>
            <path class="cls-12" d="M32.45,41.86c-.83,3.13-2.44,8.57-4.48,12.38h-.01c-.2.22-2.36,2.3-3.81,1.01-1.51-1.35,3.43-13.64,3.43-13.64l4.87.26Z"/>
            <path class="cls-6" d="M98.71,58.77c-.68-.14-1.33-.66-1.95-1.44-2.36-2.95-4.3-9.64-5.39-14.01-.6-2.43-.95-4.15-.95-4.15l6.73-2.67c4.85,2.12,6.17,23.24,1.56,22.27Z"/>
            <path class="cls-12" d="M98.87,54.92c-.24,1.98-1.34,2.38-2.11,2.4-2.36-2.95-4.3-9.64-5.39-14.01l3.58.11s4.32,8.38,3.92,11.49Z"/>
            <path class="cls-7" d="M98.24,106.57s-1.21,22.64-4.15,23.68c-1.33.47-14.64.73-26.41.77-.33-1.02-.79-3.98-.65-5.25-8.8-.29-8.85,0-8.85,0,0,0,.13,3.45-.4,5.24-10.79-.08-22.99-.32-24.88-.75-4.5-1.03-6.91-22.91-6.91-22.91l72.25-.77Z"/>
            <path class="cls-1" d="M98.24,106.57s-1.21,22.64-4.15,23.68c-1.33.47-14.64.73-26.41.77-.33-1.02-.79-3.98-.65-5.25-8.8-.29-8.85,0-8.85,0,0,0,.13,3.45-.4,5.24-10.79-.08-22.99-.32-24.88-.75-4.5-1.03-6.91-22.91-6.91-22.91l72.25-.77Z"/>
            <path class="cls-3" d="M62.33,20.49s8.05-16.39,8.05-16.89C70.4,3.11,66.85,0,66.6,0c-.24,0-4.8,15.65-4.8,15.65l-6.52-11.64-1.46,1.46,8.52,15.02Z"/>
            <path class="cls-7" d="M94.34,113.74c-15.99,18.07-56.63,16.78-66.92-2.92-8.15-15.59,2.68-47.75,7.56-60.52.01-.03.01-.04.01-.04.6-1.55,1.1-2.81,1.47-3.72h.01c.42-1.06.68-1.65.68-1.65h47.66s.01.03.04.09c.11.23.47.95.98,2.04,4.61,9.82,22.54,50.86,8.51,66.72Z"/>
            <path class="cls-7" d="M102.16,39.28c.4,1.09-5.96,4.9-16.32,7.74-12.07,3.31-29.55,5.25-48.06-.1h-.03c-.43-.13-.86-.26-1.28-.38h-.01c-5.26-1.62-10.59-3.83-15.89-6.77-1.32-.73,1.84-7.2,9.59-13.04.08-.05.15-.11.23-.17,6.65-4.94,16.63-9.37,29.99-9.39,9.73-.01,17.5,2.13,23.56,5.1h.01c3.19,1.56,5.93,3.35,8.21,5.16.08.06.14.13.22.18,6.3,5.07,9.27,10.35,9.77,11.67Z"/>
            <ellipse class="cls-9" cx="62.46" cy="94.12" rx="26.01" ry="22.11"/>
            <g class="cls-14">
              <path class="cls-7" d="M56.66,104.97c0,.48-.4.86-.9.86s-.9-.39-.9-.86.4-.86.9-.86.9.39.9.86Z"/>
              <ellipse class="cls-7" cx="65.78" cy="105.93" rx="3.79" ry="3.62"/>
              <path class="cls-7" d="M60.14,96.92c0,.7-.6,1.27-1.33,1.27s-1.33-.57-1.33-1.27.6-1.27,1.33-1.27,1.33.57,1.33,1.27Z"/>
              <ellipse class="cls-7" cx="51.33" cy="92.52" rx="2.38" ry="2.27"/>
              <path class="cls-7" d="M62.72,81.08c0,1.13-.95,2.04-2.13,2.04s-2.13-.91-2.13-2.04.95-2.04,2.13-2.04,2.13.91,2.13,2.04Z"/>
              <path class="cls-7" d="M79.08,89.67c0,2.28-1.94,4.13-4.33,4.13s-4.33-1.85-4.33-4.13,1.94-4.13,4.33-4.13,4.33,1.85,4.33,4.13Z"/>
              <path class="cls-7" d="M70.43,98.49c0,1.02-.86,1.84-1.93,1.84s-1.93-.82-1.93-1.84.86-1.84,1.93-1.84,1.93.82,1.93,1.84Z"/>
              <path class="cls-7" d="M66.14,92.23c0,1.1-.93,1.98-2.08,1.98s-2.08-.89-2.08-1.98.93-1.98,2.08-1.98,2.08.89,2.08,1.98Z"/>
              <path class="cls-7" d="M70.09,78.62c0,.42-.35.76-.79.76s-.79-.34-.79-.76.35-.76.79-.76.79.34.79.76Z"/>
              <ellipse class="cls-7" cx="79.16" cy="83.78" rx="1.35" ry="1.29"/>
              <path class="cls-7" d="M48.95,84.95c0,.65-.55,1.18-1.23,1.18s-1.23-.53-1.23-1.18.55-1.18,1.23-1.18,1.23.53,1.23,1.18Z"/>
              <ellipse class="cls-7" cx="45.75" cy="99.98" rx="3.2" ry="3.06"/>
              <path class="cls-7" d="M53.38,108.46c0,1.06-.9,1.92-2.01,1.92s-2.01-.86-2.01-1.92.9-1.92,2.01-1.92,2.01.86,2.01,1.92Z"/>
              <path class="cls-7" d="M77.4,107.1c0,.7-.59,1.26-1.32,1.26s-1.32-.57-1.32-1.26.59-1.26,1.32-1.26,1.32.57,1.32,1.26Z"/>
              <path class="cls-7" d="M83.08,96.87c0,.68-.57,1.22-1.28,1.22s-1.28-.55-1.28-1.22.57-1.22,1.28-1.22,1.28.55,1.28,1.22Z"/>
              <path class="cls-7" d="M45.48,91.69c0,.77-.66,1.4-1.46,1.4s-1.46-.63-1.46-1.4.66-1.4,1.46-1.4,1.46.63,1.46,1.4Z"/>
            </g>
            <path class="cls-12" d="M92.17,27.43c-.86,2.75-3.41,5.15-8.22,5.52-10.23.8-11.62-5.9-22.16-5.9s-16.44,7.13-25.77,4.47c-3.45-.98-5.02-2.91-5.62-4.96,6.65-4.94,16.63-9.37,29.99-9.39,9.73-.01,17.5,2.13,23.56,5.1h.01c3.19,1.56,5.93,3.35,8.21,5.16Z"/>
            <path class="cls-10" d="M38.61,25.54c-1.57,1.77,2.27,5.52,4.58,3.4s-2.35-5.91-4.58-3.4Z"/>
            <path class="cls-10" d="M84.86,25.54c1.57,1.77-2.27,5.52-4.58,3.4-2.31-2.12,2.35-5.91,4.58-3.4Z"/>
            <path class="cls-1" d="M85.84,47.02c4.61,9.82,22.54,50.86,8.51,66.72-3.26,3.69-7.55,6.56-12.4,8.65-11.14,4.79-25.24,5.36-36.62,1.83h-.01c-7.93-2.48-14.53-6.96-17.89-13.4-8.15-15.59,2.68-47.75,7.56-60.52-.23.7-3.92,12.3-4.85,27-.23,3.52-.08,7.83.65,12.21,1.72-10.38,5.22-22.11,5.22-22.11,0,0,.87,18.25-2.48,31.88,4.46,10.49,12.39,14.33,30.54,7.68,17.82-6.54,26.03-23.3,25.08-37.33-.69-10.09-7.34-15.65-7.34-15.65,0,0-27.82,2.04-44.02-7.05h-.03c-.1-.06-.2-.11-.31-.18,20.66,5.49,37.18,2.3,47.41-1.76,7.54-2.95,11.67-6.39,11.53-7.13-.32-1.76-12.44-15.58-12.44-15.58h.01c12.17,5.95,17.52,15.19,18.2,17.01.4,1.09-5.96,4.9-16.32,7.74Z"/>
            <path class="cls-5" d="M34.8,82.49h0c-1.52,10.69-4.27,20.86-6.9,23.49-.51.51-1.53.47-2.81.01-.32-.1-.66-.24-1.01-.41-1.02-.47-2.12-1.15-3.21-1.95-.34-.26-.69-.52-1.02-.82-.88-.74-1.72-1.57-2.45-2.45-.28-.33-.54-.65-.77-1h0c-1.09-1.55-1.79-3.18-1.79-4.75,0-.49.01-.98.04-1.48.93-17.78,18.6-38.61,18.6-38.61,3.21,3.44,3.03,16.03,1.32,27.97Z"/>
            <path class="cls-10" d="M89.36,35.06s-.94,2.21-2.96,4.04c-3.7,3.33-11.33,8.55-25.97,8.55-13.51,0-20.95-5.05-24.78-8.65-.49-.45-.91-.9-1.29-1.31-.37-.42-.7-.84-.97-1.2-1.05-1.41-1.44-2.39-1.44-2.39,8.18,2.75,15.71,6.38,29.4,6.02,13.83-.36,25.33-4.79,28.01-5.06Z"/>
            <path class="cls-11" d="M107.78,94.61c0,1.4-.56,2.87-1.47,4.27-.19.29-.4.59-.61.88-.83,1.1-1.83,2.12-2.9,3.03-.29.26-.59.49-.89.72-1.09.83-2.21,1.53-3.24,2.02-.31.15-.61.28-.91.4-1.38.52-2.5.6-3.04.06-3.9-3.91-8.06-24.43-8.1-38.58h0c-.01-6.04.72-10.93,2.53-12.87,0,0,13.79,16.27,17.65,32.34.63,2.61.98,5.22.98,7.75Z"/>
            <path class="cls-9" d="M98.66,105.51c-.31.15-.61.28-.91.4-.78-4.28-2.73-7.73-2.76-7.78-.14-.23-.06-.51.17-.65.23-.13.52-.05.66.18.1.18,2.02,3.56,2.84,7.85Z"/>
            <path class="cls-9" d="M102.8,102.78c-.29.26-.59.49-.89.72-.37-4.42-2.15-6.48-2.17-6.5-.18-.2-.15-.5.04-.68.2-.18.5-.17.68.04.09.1,1.85,2.11,2.35,6.42Z"/>
            <path class="cls-9" d="M106.31,98.87c-.19.29-.4.59-.61.88-.5-2.45-1.43-4.43-1.44-4.47-.1-.19-.01-.42.18-.52.19-.09.43,0,.52.19.05.1.83,1.75,1.35,3.92Z"/>
            <path class="cls-9" d="M25.67,97.38s-1.17,4.06-.57,8.61c-.32-.1-.66-.24-1.01-.41-.49-4.5.61-8.28.68-8.47.08-.26.34-.41.59-.33.26.08.4.34.32.6Z"/>
            <path class="cls-9" d="M21.38,97.39s-.86,2.76-.5,6.23c-.34-.26-.69-.52-1.02-.82-.18-3.21.56-5.58.61-5.71.08-.26.34-.4.6-.31.26.08.4.34.31.6Z"/>
            <path class="cls-1" d="M34.8,82.5c-1.52,10.68-4.27,20.84-6.9,23.47-2.08,2.09-13.05-5.13-13.05-11.37,0-.49.01-.98.04-1.48,3.04,4.23,9.74,7.71,11.89,5.1,2.66-3.24,7.79-15.2,8.02-15.72Z"/>
            <path class="cls-1" d="M107.78,94.61c-.01,6.23-10.98,13.46-13.07,11.37-3.9-3.91-8.06-24.43-8.1-38.58.11.7,4.42,26.64,10.57,30.7,4.96-.64,8.12-7.23,9.6-11.24.63,2.61.98,5.22.98,7.75Z"/>
            <path class="cls-4" d="M81.94,122.38c-11.14,4.79-25.24,5.36-36.62,1.83h-.01c-1.85-1.35,4.46-.24,17.08-.24s20.51-3.64,19.55-1.58Z"/>
            <path class="cls-9" d="M96.03,131.77c-.36.88-29.74,1.33-30.08.66-.1-.22-.13-.61-.06-1.05.11-.87.56-1.9,1.25-1.97,5.49-.51,10.63-.64,14.88-.49h.03c7.32.27,14.57,1.38,13.98,2.84Z"/>
            <path class="cls-9" d="M59.21,132.43c-.32.66-28.58.22-28.91-.66-.38-1,1.58-1.83,5.08-2.34h.01c4.64-.68,14.52-.79,22.68-.01.38.04.69.41.91.88h0c.33.74.42,1.72.23,2.13Z"/>
            <path class="cls-2" d="M96.03,131.77c-.36.88-29.74,1.33-30.08.66-.1-.22-.13-.61-.06-1.05.17.13.37.24.6.28.8.17,19.32-.23,20.2-1.07-.84-.31-4.2-1.58-4.64-1.66,7.32.27,14.57,1.38,13.98,2.84Z"/>
            <path class="cls-2" d="M59.21,132.43c-.32.66-28.58.22-28.91-.66-.38-1,1.58-1.83,5.08-2.34h.01s-1.39,1.35-1.27,1.5c.25.42,22.84.24,23.7.24.78-.01,1.11-.73,1.16-.86.33.73.42,1.71.23,2.12Z"/>
            <path class="cls-10" d="M77.41,21.53c.88-.84,1.79-1.52,2.77-2.16.97-.64,2.01-1.2,3.08-1.67,1.07-.48,2.2-.88,3.36-1.16,1.15-.31,2.35-.45,3.56-.55l.02,2.71c-1.03-.02-2.08-.02-3.12.15-1.04.13-2.08.38-3.09.71-1.02.32-2.02.73-2.98,1.23-.95.48-1.91,1.07-2.73,1.69l-.86-.94Z"/>
            <path class="cls-10" d="M45.79,22.61c-.77-.53-1.77-.95-2.75-1.2-.99-.26-2.01-.38-3.03-.39-1.02.03-2.04.13-3.04.37-1,.22-1.97.57-2.92.96l-.85-2.26c1.11-.34,2.24-.64,3.4-.79,1.15-.17,2.33-.19,3.5-.12,1.17.11,2.32.35,3.42.75,1.11.41,2.12.91,3.1,1.72l-.82.98Z"/>
            <path class="cls-8" d="M86.19,36.65s-3.11,4.11-4.59,4.11c-1.48-.01-2.29-.96-2.29-.96,0,0-1.65,1.69-2.96,1.94-1.31.25-2.62-.7-2.62-.7,0,0-.99,1.41-2.3,1.56-1.31.15-2.45-.8-2.45-.8,0,0-.57,2.24-3.27,2.31-2.14.06-3.29-1.71-3.29-1.71,0,0-1.29,1.88-2.94,1.89-1.71.02-3.14-1.93-3.14-1.93,0,0-2.14,1.89-4.26,1.25-2.14-.65-2.66-1.91-2.66-1.91,0,0-2.11,1.16-3.86.71-.96-.24-2.49-2.01-2.49-2.01,0,0-2.46.78-3.44.3-.99-.49-.76-1.99-.76-1.99,0,0-1.49.62-2.62-.02-1.07-.59-1.58-2.9-1.58-2.9,0,0,19.29,11.53,51.52.85Z"/>
          </g>
        </g>
      </g>
    </g>
  </g>
</svg>