<?xml version="1.0" encoding="UTF-8"?>
<svg xmlns="http://www.w3.org/2000/svg" viewBox="0 0 127.98 131.61">
  <defs>
    <style>
      .cls-1 {
        fill: #a34948;
      }

      .cls-1, .cls-2, .cls-3, .cls-4, .cls-5, .cls-6, .cls-7, .cls-8, .cls-9, .cls-10, .cls-11, .cls-12, .cls-13, .cls-14, .cls-15 {
        stroke-width: 0px;
      }

      .cls-2 {
        fill: #292d5c;
      }

      .cls-3 {
        fill: #787ca6;
      }

      .cls-3, .cls-5, .cls-6, .cls-8, .cls-9, .cls-11, .cls-15 {
        mix-blend-mode: multiply;
      }

      .cls-3, .cls-8, .cls-9 {
        opacity: .5;
      }

      .cls-4 {
        fill: #b2b2d6;
      }

      .cls-5 {
        fill: #994749;
        opacity: .51;
      }

      .cls-6 {
        fill: #b2aec4;
        opacity: .46;
      }

      .cls-7 {
        fill: #231640;
      }

      .cls-8 {
        fill: #686a8f;
      }

      .cls-9 {
        fill: #7879a3;
      }

      .cls-10 {
        fill: #6569a1;
      }

      .cls-16 {
        opacity: .75;
      }

      .cls-11 {
        opacity: .42;
      }

      .cls-11, .cls-15 {
        fill: #8084b0;
      }

      .cls-12 {
        fill: #e89584;
      }

      .cls-17 {
        isolation: isolate;
      }

      .cls-13 {
        fill: #b8b8dd;
      }

      .cls-14 {
        fill: #535791;
      }

      .cls-15 {
        opacity: .38;
      }
    </style>
  </defs>
  <g class="cls-17">
    <g id="Layer_2" data-name="Layer 2">
      <g id="Layer_1-2" data-name="Layer 1">
        <g>
          <path class="cls-6" d="M.95,125.12c-8.55,2.56,43.09,6.49,64.13,6.49s72.5-4.78,61.34-6.63-45.8-5.23-63.51-5.23-51.57,2.25-61.96,5.37Z"/>
          <g>
            <g>
              <path class="cls-4" d="M98.75,110.1s-1.88,3.96-1.98,4.61c-.1.66,2.35,1.01,3.65-1.13,1.29-2.14-1.67-3.48-1.67-3.48Z"/>
              <path class="cls-9" d="M98.75,110.1s-1.88,3.96-1.98,4.61c-.1.66,2.43,1.05,3.65-1.13,1.61-2.88-1.67-3.48-1.67-3.48Z"/>
              <path class="cls-4" d="M107.99,107.75s-.86,9.01-1.77,10.07c-.91,1.07-6.62,4.38-7.59,4.18-.97-.2-2.82-1.68-2.2-2.12.63-.44,3.06-3.76,3.37-4.09s.67-6.14.67-6.14l7.51-1.91Z"/>
              <path class="cls-9" d="M107.99,107.75s-.86,9.01-1.77,10.07c-.91,1.07-6.62,4.38-7.59,4.18-.97-.2-2.82-1.68-2.2-2.12.63-.44,3.06-3.76,3.37-4.09s.67-6.14.67-6.14l7.51-1.91Z"/>
            </g>
            <g>
              <path class="cls-4" d="M26.98,111.49s1.46,3.93,1.49,4.57c.03.63-2.33.76-3.38-1.39-1.05-2.15,1.89-3.18,1.89-3.18Z"/>
              <path class="cls-9" d="M26.98,111.49s1.46,3.93,1.49,4.57c.03.63-2.41.8-3.38-1.39-1.29-2.88,1.89-3.18,1.89-3.18Z"/>
              <path class="cls-4" d="M18.37,108.46s.05,8.66.83,9.76c.78,1.1,4.94,5.88,5.88,5.77.94-.1,2.19-1.1,2.27-1.83.09-.81-1.6-4.98-1.87-5.32-.27-.34-.11-5.92-.11-5.92l-7-2.46Z"/>
              <path class="cls-9" d="M18.37,108.46s.05,8.66.83,9.76c.78,1.1,4.94,5.88,5.88,5.77.94-.1,2.19-1.1,2.27-1.83.09-.81-1.6-4.98-1.87-5.32-.27-.34-.11-5.92-.11-5.92l-7-2.46Z"/>
            </g>
            <path class="cls-2" d="M85.86,27.84s3.3-1.76,4.01-1.87c.71-.11,1.44,1.52,1.44,2.23,0,.71-3.76,2.45-3.76,2.45l-1.7-2.82Z"/>
            <path class="cls-2" d="M39.99,28.18s-3.33-1.71-4.04-1.81c-.71-.1-1.42,1.54-1.41,2.25s3.79,2.39,3.79,2.39l1.66-2.84Z"/>
            <g>
              <path class="cls-14" d="M90.88,103.16s-2.1,20.3-3.1,22.02-9.74.87-10.58.34c-.84-.53-5.11-8.93-5.11-8.93,0,0-7.41,1.58-13.88.1-2.42,4.13-4.14,8.27-5.13,8.95s-9.86.74-10.7-.31-5.46-18.55-5.29-22.88c.17-4.33,53.79.7,53.79.7Z"/>
              <path class="cls-8" d="M90.88,103.16s-1.05,10.22-2.03,16.78c-.39,2.68-.78,4.74-1.07,5.24-.99,1.71-9.73.86-10.58.34-.34-.21-1.27-1.76-2.24-3.51-1.39-2.5-2.88-5.41-2.88-5.41,0,0-7.41,1.58-13.87.1-1.09,1.87-2.06,3.74-2.86,5.3-.98,1.88-1.73,3.28-2.27,3.65-1,.69-9.87.74-10.71-.31-.28-.35-1-2.58-1.82-5.54-1.58-5.81-3.58-14.46-3.46-17.34.17-4.33,53.79.7,53.79.7Z"/>
              <g class="cls-16">
                <path class="cls-4" d="M88.84,119.94c-.39,2.68-.78,4.74-1.07,5.24-.99,1.71-9.73.86-10.58.34-.34-.21-1.27-1.76-2.24-3.51,2.76-1.1,7.79-2.6,13.88-2.08Z"/>
              </g>
              <g class="cls-16">
                <path class="cls-4" d="M55.35,122c-.98,1.88-1.73,3.28-2.27,3.65-1,.69-9.87.74-10.71-.31-.28-.35-1-2.58-1.82-5.54,5.43-.44,11.27,1.06,14.81,2.2Z"/>
              </g>
            </g>
            <path class="cls-10" d="M39.28,32.59l-1.31,13.01-5.15,51.33-.27,3.38s-.23,6.44-1.12,9.84c-.26,1-.57,1.73-.96,1.96-1.67,1-15.77,2.89-16.64-2.22-.78-4.55-1.25-8.9-1.46-13.02-2.32-44.46,26.91-64.27,26.91-64.27Z"/>
            <path class="cls-15" d="M39.28,32.59l-1.31,13.01-5.15,51.33-.27,3.38s-.23,6.44-1.12,9.84c-.26,1-.57,1.73-.96,1.96-1.67,1-15.77,2.89-16.64-2.22-.78-4.55-1.25-8.9-1.46-13.02-2.32-44.46,26.91-64.27,26.91-64.27Z"/>
            <path class="cls-4" d="M32.81,96.94l-.27,3.38s-.23,6.44-1.12,9.84c-.26,1-.57,1.73-.96,1.96-1.67,1-15.77,2.89-16.64-2.22-.78-4.55-1.25-8.9-1.46-13.02.33-.2,3.1-1.8,7.38-2.3,3.51-.41,8.03-.08,13.06,2.36Z"/>
            <path class="cls-3" d="M37.97,45.61l-5.15,51.33-.27,3.38s-.23,6.44-1.12,9.84c-4.27-.18-8.17-1.91-9.84-6.86-.9-2.74-1.5-5.68-1.84-8.72-2.09-17.82,4.25-39.39,8.58-46.09,2.64-4.09,6.51-3.95,9.63-2.88Z"/>
            <path class="cls-10" d="M113.38,94.53c-.18,4.57-.71,9.4-1.64,14.5-.97,5.27-15.54,3.23-17.27,2.17-.45-.27-.8-1.24-1.08-2.53-.78-3.61-.93-9.69-.93-9.69l-.55-4.6-4.73-48.58-1.57-16.15s29.6,19.71,27.76,64.87Z"/>
            <path class="cls-11" d="M113.38,94.53c-.18,4.57-.71,9.4-1.64,14.5-.97,5.27-15.54,3.23-17.27,2.17-.45-.27-.8-1.24-1.08-2.53-.78-3.61-.93-9.69-.93-9.69l-.55-4.6-4.73-48.58-1.57-16.15s29.6,19.71,27.76,64.87Z"/>
            <path class="cls-4" d="M113.38,94.53c-.18,4.57-.71,9.4-1.64,14.5-.97,5.27-15.54,3.23-17.27,2.17-.45-.27-.8-1.24-1.08-2.53-.78-3.61-.93-9.69-.93-9.69l-.55-4.6.21-.29s6.21-2.32,14.09-1.36c2.28.27,4.7.82,7.16,1.78Z"/>
            <path class="cls-3" d="M106.22,92.75c-.23,3.19-.37,6.55-.73,10.11-1.32,4.56-6.46,5.88-12.09,5.82-.78-3.61-.93-9.69-.93-9.69l-.55-4.6-4.73-48.58,6.43-3.64s14.85,19.17,12.61,50.58Z"/>
            <path class="cls-10" d="M96.22,105.28c-1.84,1.08-3.73,2.06-5.65,2.93-16.91,7.66-36.84,7.35-54.13.17-1.76-.74-3.49-1.54-5.18-2.41-9.35-19.18-6.88-42.67-1.13-59.81h0c3.59-10.71,8.44-18.92,12.49-22.08,0,0,1.88-.68,4.96-1.46,2.29-.59,5.25-1.23,8.56-1.64,2.56-.33,5.36-.53,8.24-.47,5.98.11,11.15,1.03,14.74,1.89,3.29.78,5.25,1.51,5.25,1.51,0,0,30.92,41.68,11.87,81.38Z"/>
            <path class="cls-13" d="M78.54,38.33c-1.95,1.38-28.33,1.81-30.51.27-1.74-1.23-1.36-11.24-.46-15.99,4.08-1.05,10.23-2.23,16.8-2.12,5.99.11,11.16,1.03,14.74,1.89.47,4.18,1.04,14.81-.56,15.95Z"/>
            <path class="cls-7" d="M75.08,30.76c0,1.04-.5,1.88-1.12,1.88-.62,0-1.11-.85-1.11-1.89,0-1.04.5-1.88,1.12-1.88s1.11.85,1.11,1.89Z"/>
            <path class="cls-7" d="M52.9,30.92c0,1.04-.5,1.88-1.12,1.88s-1.11-.85-1.11-1.89c0-1.04.5-1.88,1.12-1.88.62,0,1.11.85,1.11,1.89Z"/>
            <path class="cls-13" d="M82.8,78.11c-1.22-9.09-10.41-15.37-20.52-14.01-10.11,1.36-17.32,9.84-16.1,18.94,1.23,9.11,10.41,15.38,20.52,14.01,10.12-1.36,17.32-9.83,16.1-18.94ZM74.48,82.03c-.72,4.97-5.78,8.35-11.3,7.54-5.52-.8-9.41-5.48-8.69-10.44s5.78-8.34,11.3-7.54c5.52.8,9.41,5.48,8.69,10.44Z"/>
            <path class="cls-13" d="M70.9,82c.71-3.19-1.59-6.41-5.13-7.2-3.54-.79-6.99,1.16-7.7,4.34-.71,3.19,1.58,6.41,5.13,7.2,3.54.79,6.99-1.15,7.7-4.34ZM67.65,82.29c-.85,1.57-2.96,2.07-4.7,1.13-1.74-.95-2.47-2.99-1.62-4.55.85-1.57,2.95-2.07,4.7-1.13,1.74.95,2.47,2.99,1.62,4.55Z"/>
            <path class="cls-7" d="M70.39,33.76c.04.2-.2.6-.69,1.08-1.05,1-3.28,2.27-6.7,2.33-3.17.06-5.41-1.25-6.45-2.26-.63-.59-.84-1.09-.6-1.14,4.22-.93,14.34-.61,14.44,0Z"/>
            <path class="cls-11" d="M96.22,105.28c-1.84,1.08-3.73,2.06-5.65,2.93-16.91,7.66-36.84,7.35-54.13.17-1.76-.74-3.49-1.54-5.18-2.41-9.35-19.18-6.88-42.67-1.13-59.81-4.63,22.39,3.89,49.9,10.05,54.17,6.17,4.27,38.2,6.08,43.99-2.12,16.56-23.44-.19-72.7-1.59-73.12-1.39-.41-5.57-1.78-5.57-1.78,0,0-1.92,4.62-11.43,5.12-10.74.56-13.14-6.28-13.14-6.28l3.7-1.18c2.56-.33,5.36-.53,8.24-.47,5.98.11,11.15,1.03,14.74,1.89,3.29.78,5.25,1.51,5.25,1.51,0,0,30.92,41.68,11.87,81.38Z"/>
            <g>
              <path class="cls-1" d="M74.42,22.35c-.66.58-6.03,2.5-11.27,2.36-6.44-.18-10.18-1.63-10.72-2.57-.14-.25.41-2.05,1.35-4.51.03-.06.05-.13.08-.19.14-.38.31-.8.48-1.21.55-1.4,1.21-2.93,1.9-4.49.2-.46.41-.91.63-1.38.63-1.37,1.3-2.74,1.93-4,.24-.47.49-.93.73-1.35.91-1.69,1.79-3.1,2.53-3.98.69-.82,1.27-1.2,1.69-.95.68.41,1.82,2.2,3.12,4.6.23.42.46.87.69,1.31.66,1.27,1.34,2.65,2,4.05.22.46.43.92.63,1.37.76,1.65,1.5,3.29,2.11,4.77.2.49.4.95.59,1.39,1.07,2.68,1.73,4.61,1.53,4.79Z"/>
              <path class="cls-12" d="M72.89,17.57c-3.7,1-7.17,1.31-10.16,1.27-4.17-.06-7.41-.78-8.94-1.2.17-.44.35-.91.55-1.4,2.6.67,9.79,2.1,17.96-.05.2.49.4.95.59,1.39Z"/>
              <path class="cls-12" d="M70.19,11.41c-2.65.93-5.29,1.2-7.63,1.17-2.62-.04-4.87-.47-6.33-.84.2-.46.41-.91.63-1.38,2.64.63,7.71,1.38,12.69-.32.22.46.43.92.63,1.37Z"/>
              <path class="cls-12" d="M67.55,5.99c-1.8.75-3.52.96-5.02.94-1.55-.02-2.87-.31-3.74-.57.24-.47.49-.93.73-1.35,1.56.42,4.34.83,7.33-.33.23.42.46.87.69,1.31Z"/>
              <path class="cls-5" d="M74.42,22.35c-.66.58-6.03,2.5-11.27,2.36-6.44-.18-10.18-1.63-10.72-2.57-.14-.25.41-2.05,1.35-4.51.03-.06.05-.13.08-.19.1,1.02.36,3.08.49,3.47.19.49,10.64,2.54,13.28-.9-.94-3.66-2.79-19.12-5.58-18.98.69-.82,1.27-1.2,1.69-.95.68.41,1.82,2.2,3.12,4.6.23.42.46.87.69,1.31.66,1.27,1.34,2.65,2,4.05.22.46.43.92.63,1.37.76,1.65,1.5,3.29,2.11,4.77.2.49.4.95.59,1.39,1.07,2.68,1.73,4.61,1.53,4.79Z"/>
            </g>
          </g>
        </g>
      </g>
    </g>
  </g>
</svg>