<?xml version="1.0" encoding="UTF-8"?>
<svg xmlns="http://www.w3.org/2000/svg" viewBox="0 0 112.56 129.68">
  <defs>
    <style>
      .cls-1 {
        fill: #8a6500;
      }

      .cls-1, .cls-2, .cls-3, .cls-4, .cls-5, .cls-6, .cls-7, .cls-8, .cls-9, .cls-10, .cls-11, .cls-12, .cls-13, .cls-14, .cls-15, .cls-16, .cls-17 {
        stroke-width: 0px;
      }

      .cls-2 {
        fill: #f1ea5d;
      }

      .cls-3 {
        fill: #c9c5aa;
      }

      .cls-4 {
        fill: #48300d;
      }

      .cls-5 {
        fill: #948500;
      }

      .cls-6 {
        fill: #594315;
      }

      .cls-7 {
        fill: #bcb300;
      }

      .cls-8 {
        opacity: .48;
      }

      .cls-8, .cls-10, .cls-13 {
        mix-blend-mode: multiply;
      }

      .cls-8, .cls-10, .cls-13, .cls-15 {
        fill: #cbc300;
      }

      .cls-9 {
        fill: #ebe44e;
      }

      .cls-10 {
        opacity: .6;
      }

      .cls-11 {
        opacity: .38;
      }

      .cls-11, .cls-12 {
        mix-blend-mode: overlay;
      }

      .cls-11, .cls-12, .cls-16 {
        fill: #f5f3de;
      }

      .cls-12 {
        opacity: .5;
      }

      .cls-13 {
        opacity: .7;
      }

      .cls-18 {
        isolation: isolate;
      }

      .cls-14 {
        fill: #5f4a00;
      }

      .cls-16 {
        mix-blend-mode: soft-light;
        opacity: .55;
      }

      .cls-17 {
        fill: #fdf3df;
      }
    </style>
  </defs>
  <g class="cls-18">
    <g id="Layer_2" data-name="Layer 2">
      <g id="Layer_1-2" data-name="Layer 1">
        <g>
          <path class="cls-3" d="M.31,124.73c-4.59,1.76,43.4,5.21,54.68,4.94,11.28-.26,61.4-4.27,57.33-5.48-4.07-1.22-39.74-3.81-52.33-3.81S5.45,122.75.31,124.73Z"/>
          <g>
            <path class="cls-1" d="M64.65,121.95c-.46.17,1.93,2.76,2.83,2.84.9.08,2.88-1.81,2.95-2.25s-3.7-1.35-5.78-.59Z"/>
            <path class="cls-1" d="M72.37,122.77c-.48.57,2.71,2.28,3.34,2.18.64-.1,2.61-1.61,2.4-2.26-.21-.65-4.92-.91-5.75.08Z"/>
            <path class="cls-1" d="M80.1,122.36c-.26.45,2.16,1.7,2.8,1.63.64-.07,2.03-1.73,1.92-2.28-.11-.55-4.1-.41-4.72.66Z"/>
            <path class="cls-1" d="M50.13,122.26c.58.17-1.67,2.92-2.28,3.01-.61.09-3.35-2-3.15-2.38.19-.38,2.94-1.35,5.43-.63Z"/>
            <path class="cls-1" d="M42.2,122.9c.77.23-1.62,2.61-2.54,2.71-.92.1-3.71-1.9-3.44-2.34s3.24-1.19,5.97-.37Z"/>
            <path class="cls-1" d="M33.83,123.26c.51.28-1.92,2.14-2.63,2.01-.72-.13-2.67-2.05-2.47-2.32.2-.26,3.07-.78,5.11.31Z"/>
            <path class="cls-7" d="M22.95,43.54l-.36,10.79-.46,14.03s-2.87,5.65-6.31,10.59c-1.15,1.66-2.39,3.26-3.6,4.52-.56.62-1.14,1.15-1.7,1.58-2.77,2.18-5.17,1.85-6.01-4.19-2.44-17.36,18.45-37.34,18.45-37.34Z"/>
            <path class="cls-9" d="M15.81,78.96c-1.72,2.47-3.59,4.78-5.3,6.11-1.88-1.3-2.15-4.79-.52-6.91,1.71-2.23,4.48-1.63,5.83.8Z"/>
            <path class="cls-13" d="M22.58,54.33l-.46,14.03s-2.87,5.65-6.31,10.59c-1.15,1.66-2.39,3.26-3.6,4.52-2.63-12.7,8.08-31.83,8.08-31.83l2.28,2.69Z"/>
            <path class="cls-7" d="M101.61,81.27c-.89,4.9-2.66,5.93-4.74,4.87-.62-.31-1.26-.81-1.93-1.44-1.05-.99-2.12-2.32-3.18-3.81-3.85-5.46-7.29-12.96-7.29-12.96l.07-13.37.05-11.45s20.13,20.94,17.02,38.16Z"/>
            <path class="cls-9" d="M96.86,86.15c-1.61-.81-3.39-2.84-5.11-5.26.7-1.81,2.31-4.59,5.19-3.21,3.59,1.72,2.37,7.08-.08,8.47Z"/>
            <path class="cls-13" d="M94.93,84.7c-1.05-.99-2.12-2.32-3.18-3.81-3.85-5.46-7.29-12.96-7.29-12.96l.07-13.37c.9-3.49,1.61-6.28,1.61-6.28,0,0,9.06,18.23,8.79,36.42Z"/>
            <path class="cls-14" d="M69,13.45c.08-1.44.4-2.77.9-4.06.5-1.28,1.19-2.48,2.08-3.51.89-1.02,1.9-1.93,3.06-2.57,1.13-.7,2.38-1.14,3.63-1.51l.11.43c-1.21.41-2.4.87-3.47,1.57-1.1.65-2.03,1.55-2.84,2.53-.81.99-1.42,2.14-1.86,3.36-.44,1.2-.7,2.52-.73,3.76h-.9Z"/>
            <path class="cls-14" d="M42.04,11.75c-.15-.96-.48-1.99-.9-2.92-.42-.94-.93-1.85-1.56-2.66-.62-.82-1.31-1.59-2.11-2.23-.77-.68-1.65-1.22-2.54-1.72l.18-.4c.93.48,1.86,1,2.69,1.67.85.64,1.61,1.41,2.3,2.24.69.83,1.27,1.76,1.76,2.74.48.99.87,2,1.1,3.14l-.92.14Z"/>
            <path class="cls-15" d="M87.56,119.19c-2.15,6.36-25.41,2.7-25.41,2.7,0,0-2.31-5.76-2.81-8.12l-4.74.23s-1.72,6.36-3.02,8.26c-11.2,2.12-24.54,1.64-25.2.07-9.98-24.06-10.61-49.57-6.08-70.67C26.03,24.9,40.04,5.22,53.77,4.51c1.93-.09,3.83.15,5.69.74,20.85,6.52,37,54.43,28.1,113.94Z"/>
            <path class="cls-4" d="M58.11,32.92c-.31-.14-1.1-2.64-.73-3.03.38-.39,3.83-.6,4.13.02.3.61-.04,2.53-.21,2.67-.17.14-3.2.35-3.2.35Z"/>
            <path class="cls-4" d="M51.11,33.15c.32-.14.82-2.26.6-2.92-.22-.65-3.33-.76-3.93-.22-.61.54-.09,2.67.14,2.71s3.19.43,3.19.43Z"/>
            <path class="cls-14" d="M52.42,24.43c.96.03-.38-3.94-1.04-4.42s-5.92-.16-7.44,1.95c-.62.86.45,4.79.93,4.84.48.05,2.96-2.52,7.56-2.38Z"/>
            <path class="cls-14" d="M57.08,21.4c-.92.44-1.33,3.4-.71,4.28.62.88,7.04,1.89,7.49,1.63s.91-3.95.52-4.8-5.85-1.81-7.31-1.11Z"/>
            <path class="cls-2" d="M83.16,84.43c0-11.87-12.35-15.85-27.59-15.85s-27.59,3.97-27.59,15.85,12.35,23.39,27.59,23.39,27.59-11.51,27.59-23.39Z"/>
            <path class="cls-15" d="M77.49.36c-.38.13.41,3.17,1.03,3.39.63.22,2.98-1.8,3.33-2.52S78.53,0,77.49.36Z"/>
            <path class="cls-15" d="M35.89.26c.38.2-1.14,3.68-1.66,3.76-.51.08-3.07-2.91-2.76-3.47.31-.56,3.57-.75,4.42-.29Z"/>
            <path class="cls-8" d="M87.56,119.19c-2.15,6.36-25.41,2.7-25.41,2.7,0,0-2.31-5.76-2.81-8.12l-4.74.23s-1.72,6.36-3.02,8.26c-11.2,2.12-24.54,1.64-25.2.07-9.98-24.06-10.61-49.57-6.08-70.67-2.78,18.45,3.55,37.24,9.77,43.56,8.11,8.24,29.39,9.27,43.49-8.49,15.09-19.02,2.24-70.54-14.1-81.47,20.85,6.52,37,54.43,28.1,113.94Z"/>
            <path class="cls-16" d="M59.82,85.31c6.66-3.68,14.98-20.81,2.29-26.64s-35.97,8.48-36.09,16.69c-.12,8.21,18.66,18.33,33.8,9.95Z"/>
            <path class="cls-12" d="M33.6,60.66c.26-1-3.93-1.19-6.6,1.11-2.67,2.31-3.4,5.1-1.93,5.52,1.47.42,7.66-3.2,8.54-6.63Z"/>
            <path class="cls-6" d="M83.41,41.97c-.34.21-.67.4-1.02.59-2.61,1.49-5.32,2.73-8.12,3.74-1.69.62-3.39,1.16-5.13,1.62-.29.08-.59.15-.89.22-1.56.4-3.14.73-4.72.99-.13.02-.25.05-.38.06-3.07.49-6.18.71-9.29.64-2.59.05-5.14-.39-7.71-.7-.64-.15-1.28-.29-1.92-.43-1.88-.43-3.77-.83-5.57-1.55-1.21-.46-2.48-.77-3.65-1.35l-1.22-.58-2.3-1.1c-1.19-.53-2.27-1.29-3.37-1.98l-1.81-1.16-1.49-.95c-.11-.07-.15-.21-.08-.32s.2-.14.31-.07h.02c.45.3.9.56,1.35.83h0c2.48,1.5,4.99,2.93,7.6,4.1,1.59.72,3.2,1.35,4.87,1.84,1.62.63,3.28,1,4.97,1.35.03,0,.06.01.09.02.78.15,1.57.32,2.36.5,2.51.28,5.03.67,7.58.62,4.89.07,9.79-.44,14.54-1.62.18-.04.37-.09.55-.13,1.22-.36,2.45-.68,3.67-1.06.43-.15.86-.31,1.3-.46.77-.25,1.55-.52,2.3-.83,2.07-.79,4.14-1.7,6.09-2.74.29-.16.58-.31.85-.47v-.02c.12-.05.27-.02.32.1.07.12.02.25-.08.32Z"/>
            <path class="cls-10" d="M82.88,47.71s.2,3.65-.05,3.94c-.25.29-4.78,1.85-5.62,1.51-.84-.34-2.27-6.32-2.27-6.32l7.94.86Z"/>
            <path class="cls-10" d="M33.77,45.22s-.7,6.68-1.71,7.1c-1.01.42-5.32-2.04-5.57-2.99-.25-.96,0-5.15,0-5.15l7.28,1.04Z"/>
            <path class="cls-17" d="M33.99,44.56c-.03.12-.12.35-.22.66-.54,1.62-1.82,5.29-2.4,5.73-.74.57-5.44-2.44-5.81-3.3-.3-.68.43-4.93.73-6.67.04-.21.07-.38.11-.5,2.48,1.48,4.99,2.91,7.6,4.09Z"/>
            <path class="cls-17" d="M82.88,50.34c-.9.58-4.87,1.57-5.49,1.24-.46-.25-2.25-3.6-3.12-5.28-.15-.29-.27-.51-.35-.68.77-.25,1.55-.52,2.3-.83,2.07-.79,4.14-1.7,6.09-2.74.01.15.05.31.08.52.38,2.18,1.2,7.32.49,7.78Z"/>
            <path class="cls-11" d="M49.58,6.71c-1.28.6-3.41,2.36-2.28,2.95,1.13.59,9.4-2.12,9.26-2.79-.14-.67-4.94-1.12-6.98-.16Z"/>
            <path class="cls-5" d="M38.27,112.63c-.66.21,5.55,1.37,17.49,1.48,11.94.1,19.23-2.02,19.77-2.48.54-.46-34.92.24-37.26,1Z"/>
          </g>
        </g>
      </g>
    </g>
  </g>
</svg>