<?xml version="1.0" encoding="UTF-8"?>
<svg xmlns="http://www.w3.org/2000/svg" viewBox="0 0 125.47 129.22">
  <defs>
    <style>
      .cls-1 {
        fill: #ffe9b2;
      }

      .cls-1, .cls-2, .cls-3, .cls-4, .cls-5, .cls-6, .cls-7, .cls-8, .cls-9, .cls-10, .cls-11, .cls-12, .cls-13, .cls-14, .cls-15 {
        stroke-width: 0px;
      }

      .cls-1, .cls-13, .cls-14, .cls-16, .cls-15 {
        mix-blend-mode: multiply;
      }

      .cls-2 {
        fill: #f5ba34;
      }

      .cls-3 {
        fill: #fbdfce;
        mix-blend-mode: soft-light;
        opacity: .56;
      }

      .cls-4 {
        fill: #431200;
      }

      .cls-5 {
        fill: #e28e00;
      }

      .cls-6 {
        fill: #ffdb71;
      }

      .cls-7 {
        fill: #ffd352;
      }

      .cls-8 {
        fill: #fffce8;
      }

      .cls-9, .cls-15 {
        fill: #e69e00;
      }

      .cls-10 {
        fill: #f5b133;
      }

      .cls-11, .cls-13 {
        fill: #cb6600;
      }

      .cls-12 {
        fill: #e69000;
      }

      .cls-17 {
        isolation: isolate;
      }

      .cls-13 {
        opacity: .44;
      }

      .cls-14 {
        fill: #936d51;
        opacity: .22;
      }

      .cls-16 {
        opacity: .5;
      }

      .cls-15 {
        opacity: .35;
      }
    </style>
  </defs>
  <g class="cls-17">
    <g id="Layer_2" data-name="Layer 2">
      <g id="Layer_1-2" data-name="Layer 1">
        <g>
          <path class="cls-14" d="M58.3,118.8c16.61-.43,61.39,4.18,66.77,5.42,5.38,1.23-44.31,4.76-61.7,5-17.39.24-68.91-4.53-62.88-5.59,7.94-1.4,39.05-4.34,57.81-4.82Z"/>
          <g>
            <path class="cls-11" d="M42.9,112.44c-20,3.43-29.71-2.34-33.93-10.34-5.94-11.23-1.11-26.83,1.09-27.56,2.48-.8,8.78,3.23,12.84,6.13,2.16,1.53,3.7,2.75,3.7,2.75,0,0,10.36.5,16.29,29.02Z"/>
            <path class="cls-10" d="M22.91,80.67c-8.48,4.57-12.32,14.98-13.94,21.43-5.94-11.23-1.11-26.83,1.09-27.56,2.48-.8,8.78,3.23,12.84,6.13Z"/>
            <path class="cls-2" d="M22.51,94.16s1.78,8.01,3.38,9.61c1.6,1.6,9.08,2.85,9.08,2.85l-.07-8.07-12.39-4.39Z"/>
            <path class="cls-5" d="M34.38,100.4c-.08,0-3.55-.01-8.1-2.43-1.81-.97-3.78-2.3-5.77-4.16-11.04-36.49,12.51-64.31,12.51-64.31l.8,41.9.56,29Z"/>
            <path class="cls-13" d="M34.38,100.4c-.08,0-3.55-.01-8.1-2.43-6.59-26.92,1.31-50.65,1.31-50.65l6.23,24.09.56,29Z"/>
            <g>
              <path class="cls-2" d="M103.69,90.78s.93,7.28-.49,8.7c-1.42,1.42-10.89,3.4-10.89,3.4v-9.61l11.38-2.49Z"/>
              <path class="cls-5" d="M106.18,90.96c-1.86,2.17-3.85,3.56-5.74,4.41-4.27,1.97-7.96,1.28-7.96,1.28l-2.24-43.62-1.21-23.54s18.92,24.09,17.14,61.46Z"/>
              <path class="cls-13" d="M100.44,95.37c-4.27,1.97-7.96,1.28-7.96,1.28l-2.24-43.62,3.33-10.9s8.98,27.76,6.87,53.24Z"/>
            </g>
            <path class="cls-6" d="M40.81,13.92c-2.06,2.79-6.5,8.62-7.31,8.36-.58-.19-3.7-2.57-6.3-4.83,0,0,0-.01-.01-.03-.03-.05-.1-.19-.19-.38-.41-.8-1.27-2.62-1.02-3.18.32-.72,6.68-8.81,7.95-8.99.8-.11,3.31,3.48,5.06,6.18,1.04,1.59,1.82,2.87,1.82,2.87Z"/>
            <path class="cls-12" d="M41.86,12.48s-.41.57-1.06,1.44c0,0-5.61-9.25-6.88-9.06-1.27.18-7.63,8.27-7.95,8.99-.31.69,1.06,3.27,1.21,3.56-2.09-1.81-3.82-3.55-3.66-4.04.36-1.09,9.97-14.05,11.75-13.34s6.59,12.45,6.59,12.45Z"/>
            <path class="cls-1" d="M38.99,11.04l-.61,1.32s-2.9-4.06-3.99-4.37c-1.09-.32-7.06,5.76-7.62,6.52-.56.76.23,2.52.23,2.52-.41-.8-1.27-2.62-1.02-3.18.32-.72,6.68-8.81,7.95-8.99.8-.11,3.31,3.48,5.06,6.18Z"/>
            <path class="cls-6" d="M94.77,14.51s-.01.03-.01.03c-3.42,3.09-7.87,6.31-7.87,6.31l-7.96-7.39s.62-1.2,1.51-2.72c1.46-2.49,3.61-5.88,4.76-6.17,1.82-.47,9.78,4.87,10.42,5.85.6.93-.7,3.8-.84,4.1Z"/>
            <path class="cls-12" d="M94.77,14.51c.14-.29,1.44-3.17.84-4.1-.64-.98-8.6-6.32-10.42-5.85-1.83.47-6.27,8.89-6.27,8.89l-1.65-1.54S81.9,1.11,83.45.09c1.54-1.03,13.9,7.03,15.1,9.26.5.92-1.39,3.01-3.78,5.16Z"/>
            <path class="cls-1" d="M94.77,14.51s.28-2.24-.04-3.03c-.32-.8-6.84-4.21-8.36-4.69-1.53-.48-4.29,3.26-4.29,3.26l-1.42,1.04-.23-.36c1.46-2.49,3.61-5.88,4.76-6.17,1.82-.47,9.78,4.87,10.42,5.85.6.93-.7,3.8-.84,4.1Z"/>
            <path class="cls-9" d="M87.59,121.21c-.46.2-.92.41-1.37.6-1.23.51-2.48.97-3.73,1.36-.7.22-1.39.42-2.09.6-1.48.39-2.95.72-4.43.97-.6.11-1.2.2-1.79.29-1.78.25-3.55.42-5.29.51-.58.04-1.17.06-1.75.08l-1.79-11.52h-2.87l-1.93,11.4c-.6-.04-1.2-.09-1.78-.14-2.25-.2-4.39-.5-6.37-.83-.55-.09-1.08-.19-1.6-.28-1.82-.34-3.48-.71-4.93-1.07-.66-.17-1.26-.32-1.83-.47-1.34-.36-2.44-.69-3.24-.95-1.03-.33-1.59-.53-1.59-.53,0,0-13.56-28.7-12.92-59.87h0c.22-10.68,2.1-21.65,6.75-31.85,0,0-.95-18.15,0-19.09.76-.78,35.33-.76,49.31-.34,3.24.09,5.38.2,5.74.34,1.91.71,1.07,19.09,1.07,19.09,0,0,19.29,36.36-1.54,91.72Z"/>
            <path class="cls-7" d="M87.95,91.53c0,13.09-11.23,13.22-25.09,13.22s-25.09-.13-25.09-13.22,11.23-23.71,25.09-23.71,25.09,10.61,25.09,23.71Z"/>
            <path class="cls-4" d="M86.56,26.66c.04.1-.03.22-.14.24-.53.15-1.06.32-1.59.48-1.3.41-2.61.81-3.92,1.17-.17.05-.34.1-.51.14-2.05.45-4.08,1-6.16,1.3l-3.12.51-3.13.34c-1.04.13-2.09.19-3.14.23-1.04.05-2.09.14-3.14.14-4.2.03-8.41-.31-12.55-.97-2.26-.37-4.51-.84-6.71-1.48-1.39-.37-2.75-.83-4.1-1.35-.43-.17-.88-.34-1.31-.53-.1-.04-.15-.15-.1-.25.04-.1.15-.15.25-.11h.01c.32.14.64.25.95.36,1.48.53,2.99.99,4.51,1.36,2.17.56,4.39.99,6.6,1.34,4.11.62,8.27.9,12.43.84,1.04.01,2.09-.08,3.12-.1,1.04-.03,2.09-.09,3.12-.2l3.1-.31,3.09-.47c2.21-.34,4.39-.8,6.56-1.32,1.45-.36,2.9-.74,4.35-1.14.42-.11.84-.23,1.26-.34h.01c.1-.04.22.03.24.14Z"/>
            <path class="cls-8" d="M85.05,26.86c-.05.14-.13.32-.22.52-.55,1.37-1.6,3.87-2.02,4.25-.45.39-1.44-1.91-1.89-3.08-.1-.24-.18-.43-.22-.55,1.45-.36,2.9-.74,4.35-1.14Z"/>
            <path class="cls-8" d="M42.69,28.24c-.04.1-.13.29-.23.53-.52,1.17-1.64,3.61-2,3.51-.36-.09-1.53-3.26-2.1-4.86-.08-.22-.14-.39-.19-.55,1.48.53,2.99.99,4.51,1.36Z"/>
            <path class="cls-4" d="M55.66,21.17l4.7.25s-.41-4.09-2.16-4.36c-2.54-.4-2.54,4.12-2.54,4.12Z"/>
            <path class="cls-4" d="M67.84,21.17l-4.67.25s.38-4.09,2.13-4.36c2.54-.4,2.54,4.12,2.54,4.12Z"/>
            <g class="cls-16">
              <path class="cls-11" d="M61.88,21.74c-6.38,0-10.93-.72-10.99-.74-.11-.02-.18-.12-.17-.23.02-.11.12-.18.23-.17.1.02,10.28,1.64,21.56,0,.11-.01.21.06.23.17.02.11-.06.21-.17.23-3.8.55-7.48.74-10.69.74Z"/>
            </g>
            <path class="cls-15" d="M87.59,121.21c-.46.2-.92.41-1.37.6-1.23.51-2.48.97-3.73,1.36-.7.22-1.39.42-2.09.6-1.48.39-2.95.72-4.43.97-.6.11-1.2.2-1.79.29-1.78.25-3.55.42-5.29.51-.58.04-1.17.06-1.75.08l-1.79-11.51h0s-2.87-.01-2.87-.01l-1.93,11.4c-.6-.04-1.2-.09-1.78-.14-2.25-.2-4.39-.5-6.37-.83-.55-.09-1.08-.19-1.6-.28-1.82-.34-3.48-.71-4.93-1.07-.66-.17-1.26-.32-1.83-.47-1.34-.36-2.44-.69-3.24-.95-1.03-.33-1.59-.53-1.59-.53,0,0-13.56-28.7-12.92-59.87,1.88,22.14,15.36,43.41,43.53,36.51,32.94-8.06,17.91-65.41,17.37-67.03-.53-1.62.42-18.35,0-19.1-.42-.74-2.99-1.59-4.85-1.65,3.24.09,5.38.2,5.74.34,1.91.71,1.07,19.09,1.07,19.09,0,0,19.29,36.36-1.54,91.72Z"/>
            <path class="cls-7" d="M74.19,125.03c-1.78.25-3.55.42-5.29.51,0,0,.2-2.96,2.06-3.6,1.56-.53,2.86,2.23,3.23,3.09Z"/>
            <path class="cls-7" d="M80.41,123.77c-1.48.39-2.95.72-4.43.97.01-.24.23-2.99,1.55-3.7,1.09-.58,2.38,1.74,2.87,2.73Z"/>
            <path class="cls-7" d="M86.22,121.81c-1.23.51-2.48.97-3.73,1.36-.01-.8.06-2.76.97-3.51.99-.81,2.21.98,2.76,2.15Z"/>
            <path class="cls-7" d="M58.76,125.35c-2.25-.2-4.39-.5-6.37-.83.55-1.34,1.97-4.25,3.94-3.57,1.98.67,2.35,3.28,2.43,4.4Z"/>
            <path class="cls-7" d="M50.79,124.24c-1.82-.34-3.48-.71-4.93-1.07.36-1.04,1.55-3.97,3.38-3.14,1.72.78,1.67,3.15,1.55,4.21Z"/>
            <path class="cls-7" d="M44.02,122.7c-1.34-.36-2.44-.69-3.24-.95.11-1.6.93-3.27,2.15-2.51.99.6,1.11,2.47,1.09,3.46Z"/>
            <path class="cls-13" d="M65.35,114.09h-2.87c-7.77-.25-12.62-2.19-12.62-2.19,8.16-1.6,29.05-.39,28.47-.18-4.71,1.76-12.98,2.37-12.98,2.37Z"/>
            <path class="cls-3" d="M34.54,72.19c-2.46,2.22,7.19,13.18,22.5,12.46,15.31-.72,25.73-12.16,24.78-16.46-.95-4.29-30.9-10.78-47.28,3.99Z"/>
            <path class="cls-4" d="M69.56,16.75c-1.99-1.48-4.35-2.25-6.61-2.14l-.08-1.91c2.7-.12,5.49.78,7.83,2.52l-1.14,1.53Z"/>
            <path class="cls-4" d="M53.69,16.47l-1.31-1.39c1.81-1.7,3.97-3.03,6.27-3.85l.64,1.8c-2.06.74-4,1.93-5.61,3.45Z"/>
            <path class="cls-5" d="M53.68,35.51c.54.85,11.19,2.97,15.46.85,4.26-2.12-15.46-.85-15.46-.85Z"/>
          </g>
        </g>
      </g>
    </g>
  </g>
</svg>