<?xml version="1.0" encoding="UTF-8"?>
<svg xmlns="http://www.w3.org/2000/svg" viewBox="0 0 127.81 132.1">
  <defs>
    <style>
      .cls-1 {
        fill: #fffb96;
        opacity: .86;
      }

      .cls-1, .cls-2, .cls-3, .cls-4, .cls-5, .cls-6, .cls-7, .cls-8, .cls-9, .cls-10, .cls-11, .cls-12, .cls-13, .cls-14, .cls-15, .cls-16, .cls-17, .cls-18 {
        stroke-width: 0px;
      }

      .cls-1, .cls-19 {
        mix-blend-mode: soft-light;
      }

      .cls-2 {
        fill: #eaef6a;
      }

      .cls-3, .cls-7 {
        fill: #aebd08;
      }

      .cls-4, .cls-6 {
        fill: #99b301;
      }

      .cls-5, .cls-11 {
        fill: #3e1d0f;
      }

      .cls-6, .cls-8, .cls-9, .cls-10, .cls-11, .cls-20, .cls-18 {
        mix-blend-mode: multiply;
      }

      .cls-6, .cls-20 {
        opacity: .28;
      }

      .cls-7, .cls-9, .cls-18 {
        opacity: .5;
      }

      .cls-8 {
        fill: #dac95e;
        opacity: .54;
      }

      .cls-9 {
        fill: #79861c;
      }

      .cls-10 {
        fill: #778c70;
        opacity: .24;
      }

      .cls-11 {
        opacity: .2;
      }

      .cls-12 {
        fill: #fff6e1;
      }

      .cls-13 {
        fill: #718400;
      }

      .cls-14 {
        fill: #6a7f00;
      }

      .cls-15, .cls-18 {
        fill: #94430c;
      }

      .cls-16 {
        fill: #fff;
        mix-blend-mode: overlay;
      }

      .cls-21 {
        isolation: isolate;
      }

      .cls-17 {
        fill: #f9f478;
      }
    </style>
  </defs>
  <g class="cls-21">
    <g id="Layer_2" data-name="Layer 2">
      <g id="Layer_1-2" data-name="Layer 1">
        <g>
          <path class="cls-10" d="M63.25,121.19c16.9-.58,58.67,3.63,64.15,5.06,5.48,1.43-45.18,5.47-62.88,5.83S-5.64,127.74.5,126.46c8.07-1.69,43.66-4.61,62.75-5.27Z"/>
          <g>
            <path class="cls-3" d="M111.93,81.79c-3.51,14.85-22.2,6.84-22.2,6.84l-.79-3.36-11.23-47.89c3.47,9.97,24.7,22.4,32.3,39.01.8,1.76,1.46,3.56,1.92,5.4Z"/>
            <path class="cls-2" d="M111.93,81.79c-1.11,4.73-3.78,7.13-6.88,8.22-.55.2-1.11.36-1.67.46-1.22.27-2.47.34-3.69.32-.15,0-.31,0-.45-.01-.41-.01-.8-.05-1.2-.08-4.31-.41-7.99-1.92-8.3-2.05h-.03s-.79-3.37-.79-3.37c0,0,.09-.06.24-.18.99-.71,4.95-3.47,9.56-5.44.81-.36,1.65-.67,2.48-.95,4.55-1.6,8.79-2.31,8.79-2.31.8,1.76,1.46,3.56,1.92,5.4Z"/>
            <path class="cls-9" d="M99.25,90.77c-4.81-.19-9.16-1.98-9.5-2.12h-.03s-.55-3.55-.55-3.55l-5.54-36.19s12.97,17.35,16.8,27.13c.36.9.62,1.81.79,2.67,1.07,5.02-.5,9.36-1.97,12.07Z"/>
            <g class="cls-20">
              <path class="cls-4" d="M108.12,83.24c-.04.39-.45,1.53-3.06,6.77-.55.2-1.11.36-1.67.46,2.76-5.47,3.41-7.02,3.47-7.35.04-.45-.5-2.47-1.02-4.06-.11-.34.08-.7.41-.8.33-.11.69.06.8.41.19.6,1.16,3.62,1.07,4.58Z"/>
            </g>
            <g class="cls-20">
              <path class="cls-4" d="M99.7,90.79c-.15,0-.31,0-.45-.01-.41-.01-.8-.05-1.2-.08,4.13-4.27,3.31-6.16,2.34-8.34-.1-.24-.22-.5-.32-.75-.14-.33.03-.7.34-.83.33-.14.7.01.83.34.1.24.2.48.32.72.99,2.25,2.02,4.57-1.87,8.94Z"/>
            </g>
            <path class="cls-3" d="M42.29,37.13l-3.14,16.19-6.21,31.96-.65,3.36s-5.43,3.73-11.12,4.83c-4.58.88-9.33.05-11.56-5.84-.22-2-.22-3.93,0-5.8,1.67-15.57,16.9-27.64,32.67-44.7Z"/>
            <path class="cls-2" d="M32.94,85.28l-.65,3.36s-2.67,1.83-6.22,3.31c-.56.23-1.13.45-1.73.66-.67.23-1.37.45-2.09.61-.36.1-.71.18-1.08.25-.47.09-.94.17-1.41.22-4.12.43-8.15-.78-10.15-6.05-.22-2-.22-3.93,0-5.8,0,0,4.25-.03,10.07.69.7.09,1.41.19,2.15.29,6.91,1,11.1,2.47,11.1,2.47Z"/>
            <path class="cls-9" d="M39.15,53.32l-6.21,31.96-.65,3.36s-5.43,3.73-11.12,4.83c-1.31-3.6-1.72-7.3-1.49-10.95,1.09-17.87,17.32-34.71,17.32-34.71l2.14,5.51Z"/>
            <g class="cls-20">
              <path class="cls-4" d="M22.26,93.22c-.36.1-.71.18-1.08.25-.47.09-.94.17-1.41.22-1.77-.66-4.18-1.67-5.1-2.58-1.46-1.46-1.88-5.35-1.93-5.79-.03-.36.23-.66.57-.7.36-.03.66.22.7.57.1,1.07.59,4.04,1.56,5.01,1.02,1.02,5.1,2.48,6.58,2.96.04.01.08.03.11.05Z"/>
            </g>
            <g class="cls-20">
              <path class="cls-4" d="M26.07,91.94c-.56.23-1.13.45-1.73.66-1.32-.57-2.81-1.25-3.8-1.88-2.29-1.45-3.84-5.07-3.9-5.23-.14-.32.01-.7.33-.83.33-.14.7.01.84.33.01.04,1.46,3.41,3.41,4.64,1.25.79,3.36,1.69,4.86,2.3Z"/>
            </g>
            <g>
              <path class="cls-15" d="M50,18.3l-4.12,10.24s-3.96-.15-8.47-1.48c-.41-.13-.81-.25-1.23-.39-3.97-1.34-8.15-3.62-10.31-7.54-.22-.39-.41-.79-.57-1.21-.25-.57-.45-1.18-.6-1.82,1.4-5.16,6.1-9.11,10.66-11.67.48-.28.95-.53,1.44-.78,4.3-2.21,8.13-3.14,8.43-2.71.39.59-2.29,3.62-4.24,6.35-.08.1-.15.22-.23.32h0c-.19.29-.37.56-.55.83-.78,1.2-1.28,2.25-1.12,2.86.04.14.11.29.24.47.25.34.69.74,1.23,1.17.69.53,1.56,1.11,2.51,1.67.42.27.85.52,1.3.78.64.36,1.27.71,1.88,1.03,2.06,1.09,3.75,1.89,3.75,1.89Z"/>
              <g class="cls-19">
                <path class="cls-12" d="M40.98,7.28c-.28.39-.53.78-.78,1.14-.78-1.3-2.26-3.08-4.86-4.01.48-.28.95-.53,1.44-.78,2.03.98,3.37,2.42,4.2,3.64Z"/>
              </g>
              <g class="cls-19">
                <path class="cls-12" d="M40.56,12.93c-6.61.38-12.04,4.03-14.7,6.19-.22-.39-.41-.79-.57-1.21,2.68-2.14,7.74-5.47,14.04-6.16.25.34.69.74,1.23,1.17Z"/>
              </g>
              <g class="cls-19">
                <path class="cls-12" d="M44.36,15.37c-6.24,2.99-6.93,9.27-6.96,11.69-.41-.13-.81-.25-1.23-.39.11-2.79,1.09-8.83,6.89-12.07.42.27.85.52,1.3.78Z"/>
              </g>
              <path class="cls-18" d="M50,18.3l-4.12,10.24s-3.96-.15-8.47-1.48c-.41-.13-.81-.25-1.23-.39-3.97-1.34-8.15-3.62-10.31-7.54-.22-.39-.41-.79-.57-1.21-.25-.57-.45-1.18-.6-1.82,1.4-5.16,6.1-9.11,10.66-11.67.48-.28.95-.53,1.44-.78,4.3-2.21,8.13-3.14,8.43-2.71.39.59-2.29,3.62-4.24,6.35-.08.1-.15.22-.23.32.52-2.3,1.96-5.29,1.72-5.57-6.56,1-15.68,10.96-14.36,13.4,1.32,2.44,12.93,7.31,13.16,7.03.24-.28.72-2.68,1.25-3.34.53-.66,3.71-2.72,3.71-2.72h.01c2.06,1.09,3.75,1.89,3.75,1.89Z"/>
            </g>
            <g>
              <path class="cls-15" d="M95.44,18c-.19.46-.39.89-.62,1.31-.22.42-.47.81-.74,1.2-2.24,3.28-5.76,5.35-9.08,6.66-.41.17-.81.32-1.21.45-4.01,1.4-7.41,1.7-7.41,1.7l-5.01-10.02h.01c.18-.11,1.64-1,3.47-2.19.6-.38,1.23-.79,1.88-1.22.36-.24.71-.47,1.07-.72,1.22-.83,2.4-1.67,3.33-2.4.51-.39.94-.76,1.26-1.08.34-.33.57-.61.65-.83.08-.22.06-.52-.04-.9v-.03c-.18-.66-.58-1.54-1.11-2.49-.22-.38-.44-.79-.69-1.18-1.55-2.61-3.5-5.37-3.5-5.88s4.01-1.07,8.57,2.58c.39.32.8.67,1.21,1.07,2.81,2.67,5.71,7.02,7.95,13.98Z"/>
              <g class="cls-19">
                <path class="cls-12" d="M87.49,4.03c-2.98.43-4.78,2.31-5.6,3.41-.22-.38-.44-.79-.69-1.18.93-1.14,2.58-2.65,5.07-3.29.39.32.8.67,1.21,1.07Z"/>
              </g>
              <g class="cls-19">
                <path class="cls-12" d="M94.81,19.31c-.22.42-.47.81-.74,1.2-3.61-5.99-10.76-7.44-12.95-7.74.51-.39.94-.76,1.26-1.08,2.99.59,8.97,2.39,12.43,7.63Z"/>
              </g>
              <g class="cls-19">
                <path class="cls-12" d="M85,27.17c-.41.17-.81.32-1.21.45-1.17-5.29-5.61-10.22-7.06-11.73.36-.24.71-.47,1.07-.72,1.67,1.73,5.94,6.6,7.2,12.01Z"/>
              </g>
              <path class="cls-18" d="M95.44,18c-.19.46-.39.89-.62,1.31-.22.42-.47.81-.74,1.2-2.24,3.28-5.76,5.35-9.08,6.66-.41.17-.81.32-1.21.45-4.01,1.4-7.41,1.7-7.41,1.7l-5.01-10.02h.01c.18-.11,1.64-1,3.47-2.19,2.01.85,5.15,2.26,5.19,2.76.05.72.83,4.31.83,4.31,0,0,11.57-1.69,9.4-9.75-2.16-8.06-10.01-13.35-10.38-13.14-.37.2,3.36,6.27,3.12,8.64-.18-.66-.58-1.54-1.11-2.49-.22-.38-.44-.79-.69-1.18-1.55-2.61-3.5-5.37-3.5-5.88s4.01-1.07,8.57,2.58c.39.32.8.67,1.21,1.07,2.81,2.67,5.71,7.02,7.95,13.98Z"/>
            </g>
            <path class="cls-14" d="M89.24,101.96s25.42,12.23,27.38,12.29c1.96.06,11.25-16.48,11.07-18.85-.17-2.36-12.75-4.01-15.51-2.35-2.76,1.66-.88,11.58.37,12.7,1.25,1.12,8.75-6.37,8.86-7.29.12-.92-7.52,4.91-7.94,4.04-.42-.87-1.37-6.41.35-7.19s9.9.44,10.42,1.53c.52,1.1-7.27,11.64-9,11.99-1.73.35-22.62-9.34-22.62-9.34l-3.37,2.47Z"/>
            <path class="cls-3" d="M93.07,123.03c-.25.43-3.03,1.72-7.16,2.77-.34.09-.7.18-1.07.25-3.83.89-8.64,1.51-13.65,1.13-.2-.22-.41-.46-.6-.71-.09-.13-.19-.27-.27-.41-1.88-2.95-2.43-7.62-2.59-9.74v-.06c0-.1-.01-.19-.01-.28h0c-.01-.13-.01-.19-.01-.19h0c-.03-.39-.03-.61-.03-.61,0,0-7.34,1.84-12.02.17.04.15.06.29.08.45h.01c.7,4.13-.89,9.22-2.28,10.82-.15.19-.33.33-.48.42-.97.55-9.21.14-14.71-1-3.04-.61-5.51-1.26-5.98-1.68-1.34-1.17-14.54-32.37-4.68-53.88.79-1.72,1.54-3.38,2.25-5.01,12.98-29.53,14.78-44.75,14.78-44.75,3.17-7.85,22.87-10.86,33.71,0-.99,6.33.51,20.53,13.7,48.07,13.19,27.55,1.5,53.43,1,54.25Z"/>
            <path class="cls-13" d="M70.66,24.09c-2.11-4.78-7.4-7.42-12.52-6-5.12,1.42-8.3,6.41-7.65,11.59.06.53.16,1.04.31,1.57,1.58,5.71,7.43,9.07,13.07,7.51,5.63-1.56,8.93-7.45,7.35-13.16-.15-.53-.33-1.03-.55-1.51Z"/>
            <path class="cls-17" d="M85.91,125.8c-.34.09-.7.18-1.07.25-3.83.89-8.64,1.51-13.65,1.13-.2-.22-.41-.46-.6-.71-.09-.13-.19-.27-.27-.41-2.07-3.18-2.51-8.13-2.59-9.74v-.06c0-.1-.01-.19-.01-.28h0c-.01-.13-.01-.19-.01-.19h0c-4.6.66-8.61.53-11.95,0,.9,4.18-.81,9.22-2.28,10.82-.15.19-.33.33-.48.42-.97.55-9.21.14-14.71-1-4.73-8.99-5.79-17.5-5.62-24.19.66-28.28,37.86-35.61,50.55-19.55.52.65,1,1.31,1.45,1.97,13.4,19.42,1.25,41.54,1.25,41.54Z"/>
            <path class="cls-8" d="M80.05,112.33c-4.49,1.83-8.61,2.91-12.34,3.45-4.6.67-8.61.55-11.95.01h-.01c-7.73-1.21-11.93-4.46-11.93-4.46-2.25-2.15,5.15,1.54,18.57,1.18,13.42-.37,24.88-5.29,17.66-.18Z"/>
            <path class="cls-12" d="M70.64,28.29c0,5.33-4.32,9.64-9.64,9.64s-9.64-4.31-9.64-9.64c0-.5.04-.97.11-1.44,0,0,9.05-7.22,19.05,0,.08.47.11.94.11,1.44Z"/>
            <path class="cls-5" d="M66.64,28.08c0,2.94-2.39,5.33-5.33,5.33s-5.33-2.39-5.33-5.33,2.39-5.33,5.33-5.33,5.33,2.39,5.33,5.33Z"/>
            <path class="cls-13" d="M70.52,26.85c-10-7.22-19.05,0-19.05,0,.69-4.64,4.69-8.2,9.53-8.2s8.84,3.56,9.53,8.2Z"/>
            <path class="cls-1" d="M40,71.68c-12.38,7.07-12.72,23.58,7.56,21.31,20.28-2.26,33.73-15.65,29.31-21.31-4.42-5.66-21.01-9.05-36.87,0Z"/>
            <path class="cls-5" d="M52.25,37.27c-1.01-.32-1.96,2.78-1.28,3.54.68.76,6.58,1.9,6.82.91.25-.98-4.38-4.08-5.54-4.45Z"/>
            <path class="cls-6" d="M93.07,123.03c-.25.43-3.03,1.72-7.16,2.77-.34.09-.7.18-1.07.25-3.78.8-8.65,1.51-13.65,1.13-3.03-3.19-3.37-10.01-3.47-11.2h0c-.01-.13-.01-.19-.01-.19h0c-4.6.66-8.61.53-11.95,0,.9,4.18-.81,9.22-2.28,10.82-.15.19-.33.33-.48.42-.97.55-9.21.14-14.71-1-3.04-.61-5.51-1.26-5.98-1.68-1.34-1.17-14.54-32.37-4.68-53.88.79-1.72,1.54-3.38,2.25-5.01-2.68,6.27-5.74,23.06-1.45,31.81.94,1.92,2.39,3.42,4.23,4.58,6.56,4.12,18.14,3.83,29.84,2.09,9.55-1.41,19.27-7.34,22.17-19.66,1.65-7.03,1.09-16.15-2.99-27.7-8.64-24.42-3.31-35.86-3.31-35.86-.99,6.33.51,20.53,13.7,48.07,13.19,27.55,1.5,53.43,1,54.25Z"/>
            <path class="cls-16" d="M53.9,27.36c-.32,1.01,1.15,1.41,2.85,1.04,1.7-.37,2.33-2.63,1.27-2.94-1.06-.31-3.58.27-4.11,1.9Z"/>
            <path class="cls-11" d="M63.16,30.53c-1.58.4-3.47,3.25-1.35,3.5,2.12.25,6.47-.85,6.78-1.8.31-.95-3.55-2.17-5.43-1.7Z"/>
            <path class="cls-7" d="M52.99,23.4c-.3,1.4,2.42-1.44,6.12-2.01,3.7-.56,6.92,1.03,7.15.35.24-.68-4.71-3.7-7.84-2.74-3.13.95-5.16,3.12-5.43,4.4Z"/>
            <path class="cls-13" d="M70.52,26.85c-10-7.22-19.05,0-19.05,0,.69-4.64,4.69-8.2,9.53-8.2s8.84,3.56,9.53,8.2Z"/>
            <path class="cls-13" d="M70.52,26.85c-10-7.22-19.05,0-19.05,0,.69-4.64,4.69-8.2,9.53-8.2s8.84,3.56,9.53,8.2Z"/>
          </g>
        </g>
      </g>
    </g>
  </g>
</svg>